<svg width="157" height="203" viewBox="0 0 157 203" fill="none" xmlns="http://www.w3.org/2000/svg">
<path d="M118.134 117.334H114.578V126.157H118.134V117.334Z" fill="#A6A5AD"/>
<path d="M78.4998 202.397C105.325 202.397 127.071 199.833 127.071 196.67C127.071 193.507 105.325 190.943 78.4998 190.943C51.6749 190.943 29.929 193.507 29.929 196.67C29.929 199.833 51.6749 202.397 78.4998 202.397Z" fill="#615F65" fill-opacity="0.2"/>
<path fill-rule="evenodd" clip-rule="evenodd" d="M73.651 189.814C71.9527 189.814 70.5419 191.053 70.273 192.678H68.736V193.812H70.273C70.5419 195.437 71.9527 196.677 73.651 196.677C75.5417 196.677 77.0745 195.141 77.0745 193.246C77.0745 191.352 75.5417 189.816 73.651 189.816V189.814Z" fill="#79787E"/>
<path d="M73.651 195.479C74.8826 195.479 75.8809 194.478 75.8809 193.244C75.8809 192.01 74.8826 191.01 73.651 191.01C72.4194 191.01 71.421 192.01 71.421 193.244C71.421 194.478 72.4194 195.479 73.651 195.479Z" fill="#DDDBE6"/>
<path fill-rule="evenodd" clip-rule="evenodd" d="M44.2396 192.993C43.6087 197.537 44.8622 197.866 49.0574 198.125C52.6257 198.345 54.9549 198.233 57.7869 196.784L58.093 197.189C59.0859 198.333 58.5771 198.231 62.6646 198.206C64.6939 198.194 67.3273 198.401 68.9842 197.904L69.2904 194.017L69.2862 192.614L69.278 191.362L69.3131 186.031C68.4836 186.62 67.9685 186.815 66.7274 186.433V192.877H47.3777C47.3818 192.794 47.3901 192.716 47.4025 192.641H47.3735C47.3901 192.602 47.4066 192.564 47.4232 192.527C47.8886 190.357 51.5914 191.64 53.5524 191.037C54.8494 190.639 56.1506 189.915 57.4704 188.27C57.851 187.741 58.5274 186.879 58.8729 186.151C57.2656 186.721 57.0835 186.388 55.7162 186.435C52.7457 189.25 53.5773 188.266 48.7864 188.608C45.9689 188.809 44.9098 190.461 44.2396 192.989V192.993Z" fill="#261818"/>
<path d="M66.6922 193.895H60.9415V195.52H66.6922V193.895Z" fill="#A5814F"/>
<path fill-rule="evenodd" clip-rule="evenodd" d="M57.5428 193.895H47.3218L47.3156 194.894C47.3135 195.313 47.7914 195.481 48.6292 195.52H53.6228C55.6086 195.356 56.8126 194.757 57.5448 193.895H57.5428Z" fill="#A5814F"/>
<path fill-rule="evenodd" clip-rule="evenodd" d="M83.3507 189.814C85.049 189.814 86.4598 191.053 86.7287 192.678H88.2657V193.812H86.7287C86.4598 195.437 85.049 196.677 83.3507 196.677C81.46 196.677 79.9271 195.141 79.9271 193.246C79.9271 191.352 81.46 189.816 83.3507 189.816V189.814Z" fill="#79787E"/>
<path d="M83.3507 195.479C84.5822 195.479 85.5806 194.478 85.5806 193.244C85.5806 192.01 84.5822 191.01 83.3507 191.01C82.1191 191.01 81.1207 192.01 81.1207 193.244C81.1207 194.478 82.1191 195.479 83.3507 195.479Z" fill="#DDDBE6"/>
<path fill-rule="evenodd" clip-rule="evenodd" d="M112.76 192.993C113.391 197.537 112.137 197.866 107.942 198.125C104.374 198.345 102.045 198.233 99.2127 196.784L98.9066 197.189C97.9136 198.333 98.4225 198.231 94.335 198.206C92.3057 198.194 89.6723 198.401 88.0154 197.904L87.7092 194.017L87.7133 192.614L87.7216 191.362L87.6865 185.606C88.516 186.195 89.0311 186.39 90.2722 186.008V192.879H109.622C109.618 192.796 109.61 192.718 109.597 192.643C109.587 192.579 109.589 192.583 109.576 192.529C109.111 190.359 105.408 191.642 103.447 191.039C102.15 190.641 100.849 189.917 99.5292 188.272C99.1486 187.743 98.4722 186.881 98.1267 186.153C99.734 186.723 99.916 186.39 101.283 186.437C104.254 189.252 103.422 188.268 108.213 188.61C111.031 188.811 112.09 190.463 112.76 192.991V192.993Z" fill="#261818"/>
<path d="M96.0602 193.895H90.3095V195.52H96.0602V193.895Z" fill="#A5814F"/>
<path fill-rule="evenodd" clip-rule="evenodd" d="M100.007 193.895H110.228L110.234 194.894C110.236 195.313 109.758 195.481 108.921 195.52H103.927C101.941 195.356 100.737 194.757 100.005 193.895H100.007Z" fill="#A5814F"/>
<path fill-rule="evenodd" clip-rule="evenodd" d="M109.74 192.881H90.2722V184.56H97.3779C99.4672 189.003 101.503 190.411 103.528 191.031C105.599 191.665 109.601 190.214 109.74 192.881Z" fill="#95635C"/>
<path d="M63.6555 183.826H62.1868V193.901H63.6555V183.826Z" fill="#774A45"/>
<path d="M94.6701 183.826H93.2014V193.901H94.6701V183.826Z" fill="#774A45"/>
<path fill-rule="evenodd" clip-rule="evenodd" d="M47.1584 192.881H66.7274V184.516H59.5845C57.4849 188.985 55.4369 190.398 53.4035 191.022C51.3225 191.661 47.297 190.201 47.1584 192.884V192.881Z" fill="#95635C"/>
<path d="M63.7838 183.778H62.3068V193.905H63.7838V183.778Z" fill="#774A45"/>
<path d="M94.9618 183.778H93.4848V193.905H94.9618V183.778Z" fill="#774A45"/>
<path d="M49.9551 119.404H45.6152V125.249H49.9551V119.404Z" fill="#FFE1CC"/>
<path d="M111.126 120.32H106.786V126.165H111.126V120.32Z" fill="#FFE1CC"/>
<path d="M78.6446 112.204H76.9214V155.788H78.6446V112.204Z" fill="#FFE1CC"/>
<path d="M80.0802 112.204H78.3571V155.788H80.0802V112.204Z" fill="#FFE1CC"/>
<path d="M41.9558 117.367H39.1322V124.491H41.9558V117.367Z" fill="#A6A5AD"/>
<path fill-rule="evenodd" clip-rule="evenodd" d="M56.6657 184.199H67.6541L69.4393 169.479L78.6446 168.587V160.829H56.6657V184.199Z" fill="#CCE6FF"/>
<path d="M77.7344 162.719H76.427V169.476H77.7344V162.719Z" fill="#A9C5DD"/>
<path fill-rule="evenodd" clip-rule="evenodd" d="M62.011 181.575H63.37V171.964C63.37 170.596 64.4871 169.479 65.8503 169.479H78.6425V168.117H64.4912C63.1259 168.117 62.011 169.236 62.011 170.602V181.575Z" fill="#A9C5DD"/>
<path fill-rule="evenodd" clip-rule="evenodd" d="M28.783 156.808H52.8657L53.0456 134.473L43.9169 134.299L44.3078 148.803L36.6168 150.748L36.5009 145.995L33.7849 143.132L28.783 143.804V156.808Z" fill="#FFE1CC"/>
<path fill-rule="evenodd" clip-rule="evenodd" d="M35.326 150.658H37.9407H47.8969C48.6209 150.658 49.2146 150.066 49.2146 149.338C49.2146 148.613 48.623 148.018 47.8969 148.018H37.9407V146.828C37.9407 144.015 35.6425 141.713 32.8354 141.713H27.7197V143.804H30.7171H31.5259C33.6152 143.804 35.326 145.518 35.326 147.612V148.422V150.132V150.658V150.658Z" fill="#945C5B"/>
<path d="M72.2112 114.438H55.4514V160.064H72.2112V114.438Z" fill="#CCE6FF"/>
<path fill-rule="evenodd" clip-rule="evenodd" d="M76.9214 130.24L72.2112 128.91L68.3823 129.933L66.7667 134.294L65.7655 134.692L64.6815 130.24V110.945H76.9214V130.24Z" fill="#EBF5FF"/>
<path fill-rule="evenodd" clip-rule="evenodd" d="M78.6446 118.132C71.7003 118.074 65.5379 119.255 60.2671 121.852V110.948H78.6446V118.134V118.132Z" fill="#A9C3DC"/>
<path fill-rule="evenodd" clip-rule="evenodd" d="M62.2675 147.199H63.7838H71.7251V148.488H63.7838V159.7H62.2675V148.488H58.5171V147.199H62.2675Z" fill="#A9C5DD"/>
<path fill-rule="evenodd" clip-rule="evenodd" d="M32.0203 113.511H10.7406V106.754H13.5125H15.97L17.0147 109.53L20.9388 108.802L23.4956 105.861L25.7442 109.109L30.713 109.426L32.0203 113.511Z" fill="#A6A5AD"/>
<path fill-rule="evenodd" clip-rule="evenodd" d="M51.4921 135.617C50.9046 157.782 54.2247 154.279 32.1941 154.843L32.2686 159.809C36.1865 159.698 41.449 159.776 45.3773 159.776C47.2949 159.776 49.4318 159.867 51.3204 159.782C53.5711 159.681 54.262 158.69 55.5838 157.766C55.8238 155.181 55.8134 151.728 55.739 148.934C55.6479 145.454 53.6414 146.022 52.5657 143.723L54.6281 141.346L52.4375 138.939L54.7688 136.707L54.2371 135.449L51.49 135.617H51.4921Z" fill="#C39E83"/>
<path fill-rule="evenodd" clip-rule="evenodd" d="M59.9672 121.649C59.0218 118.078 56.5436 114.622 52.5305 114.622C48.5195 114.622 42.8081 121.533 42.8081 124.864C42.8081 128.194 44.9967 127.741 46.0351 129.179C45.8407 128.439 45.7352 127.66 45.7352 126.853C45.7352 122.153 49.2932 118.341 53.6807 118.341C56.2375 118.341 58.5129 119.636 59.9672 121.647V121.649ZM42.9777 148.803H45.638V130.18H42.9777V148.803Z" fill="#945C5B"/>
<path d="M31.6397 137.942H20.2417V166.44H31.6397V137.942Z" fill="#A6A5AD"/>
<path fill-rule="evenodd" clip-rule="evenodd" d="M32.8767 161.857H51.4942C51.5314 161.857 51.5666 161.857 51.6038 161.855C54.4192 161.812 56.6843 160.112 56.6843 158.019C56.6843 157.266 56.3906 156.564 55.8838 155.971C55.5135 157.648 53.6703 158.96 51.3701 159.159H32.8788V161.857H32.8767Z" fill="#99625F"/>
<path d="M37.3346 115.586H21.938V137.169H37.3346V115.586Z" fill="#A6A5AD"/>
<path d="M19.3377 115.586H12.0294V137.169H19.3377V115.586Z" fill="#DDDBE6"/>
<path d="M14.431 122.376C15.6797 122.376 16.692 121.362 16.692 120.111C16.692 118.86 15.6797 117.846 14.431 117.846C13.1823 117.846 12.17 118.86 12.17 120.111C12.17 121.362 13.1823 122.376 14.431 122.376Z" fill="#A4A3A9"/>
<path fill-rule="evenodd" clip-rule="evenodd" d="M11.0633 139.605H15.1674V149.218C15.1674 149.939 15.7549 150.528 16.4748 150.528H17.1016H17.7821H19.2839V165.472H17.1016C16.39 165.472 15.8066 166.056 15.8066 166.769V171.589C15.8066 172.302 16.39 172.886 17.1016 172.886H35.1398C35.8514 172.886 36.4347 172.302 36.4347 171.589V166.769C36.4347 166.056 35.8514 165.472 35.1398 165.472H32.8788V139.605H38.5261C39.3391 139.605 40.0031 138.939 40.0031 138.125V118.695H41.5938V123.568H44.2086V117.385C44.2086 116.521 43.5032 115.814 42.6406 115.814H40.0052V114.537C40.0052 113.723 39.3411 113.058 38.5282 113.058H34.4034C33.7269 110.299 31.9479 108.33 29.8566 108.33H27.2936C27.1943 106.216 25.4546 104.533 23.3198 104.533C21.185 104.533 19.4432 106.216 19.346 108.33H19.3419V108.265H17.5401C17.4098 106.182 15.6825 104.533 13.5705 104.533C11.446 104.533 9.70838 106.203 9.59668 108.305H9.59047V108.512V108.52V108.531V114.54V115.271C9.516 115.267 9.43946 115.265 9.36499 115.265C6.69443 115.265 4.5286 117.435 4.5286 120.111C4.5286 122.787 6.69443 124.957 9.36499 124.957H9.38361H9.59254V138.127C9.59254 138.941 10.2566 139.607 11.0695 139.607L11.0633 139.605ZM12.0314 124.955H14.4331C17.1036 124.955 19.2695 122.785 19.2695 120.109C19.2695 118.044 17.9807 116.283 16.1666 115.584H19.3398V137.167H12.0314V124.955ZM14.4331 122.374V122.343H14.0607C13.9366 122.323 13.8146 122.291 13.6987 122.252C14.0173 121.605 14.1973 120.878 14.1973 120.109C14.1973 119.34 14.0173 118.612 13.6987 117.966C13.8063 117.928 13.9159 117.899 14.0297 117.879H14.4331V117.843C15.6825 117.843 16.6941 118.857 16.6941 120.109C16.6941 121.361 15.6825 122.374 14.4331 122.374V122.374ZM9.7332 122.343H9.36292V122.374H9.305L9.24708 122.372L9.18916 122.368L9.13124 122.364C9.11262 122.362 9.09401 122.36 9.07539 122.358L9.01954 122.349C9.00092 122.347 8.9823 122.343 8.96368 122.341C8.94507 122.337 8.92645 122.335 8.90783 122.331L8.85198 122.318L8.7982 122.306C8.77958 122.302 8.76303 122.296 8.74441 122.291L8.69063 122.275L8.63684 122.258L8.58513 122.24L8.53341 122.219L8.4817 122.198L8.43205 122.175L8.38241 122.153L8.33276 122.128L8.28518 122.103L8.2376 122.076L8.19003 122.049L8.14452 122.02L8.09901 121.991L8.0535 121.96L8.01006 121.929L7.96662 121.896L7.92524 121.862L7.88387 121.827L7.8425 121.792L7.8032 121.755L7.76389 121.717L7.72666 121.678L7.68942 121.639L7.65426 121.597L7.61909 121.556L7.58599 121.514L7.5529 121.471L7.52187 121.427L7.49084 121.382L7.46188 121.336L7.43292 121.29C7.42257 121.276 7.4143 121.259 7.40602 121.243L7.37913 121.195L7.35431 121.147L7.32949 121.098L7.30673 121.048L7.28398 120.998L7.26329 120.946L7.24261 120.894L7.22399 120.843L7.20744 120.789L7.19089 120.735C7.18675 120.716 7.18055 120.7 7.17641 120.681C7.17227 120.662 7.16814 120.646 7.164 120.627L7.15159 120.571L7.14124 120.515C7.13711 120.496 7.13504 120.478 7.13297 120.459L7.12469 120.403L7.11849 120.347L7.11435 120.289L7.11021 120.231L7.10815 120.173V120.115C7.10815 118.863 8.11969 117.85 9.36913 117.85V117.885H9.77044C10.8275 118.076 11.6301 119 11.6301 120.115C11.6301 121.241 10.813 122.173 9.73941 122.349L9.7332 122.343ZM21.9421 126.932H29.78V128.321H21.9421V129.761H29.78V131.15H21.9421V137.169H37.3387V115.586H34.4034V121.212C34.4034 122.105 33.6732 122.837 32.7816 122.837H26.5882C25.5539 122.837 24.7058 121.989 24.7058 120.95V115.588H21.94V126.936L21.9421 126.932ZM31.6852 115.584V119.272C31.6852 119.676 31.3563 120.005 30.9529 120.005H28.1583C27.7549 120.005 27.426 119.676 27.426 119.272V115.584H31.6832H31.6852ZM31.6232 113.058H24.7078H21.9421V112.26L21.9793 108.33C22.0704 107.671 22.6351 107.163 23.3198 107.163C24.0024 107.163 24.5672 107.671 24.6603 108.33L24.6375 109.557C24.6251 110.193 25.1257 110.722 25.7483 110.78C25.7277 110.817 25.7049 110.852 25.6842 110.89H28.9857C30.0965 110.89 31.0729 111.756 31.6232 113.058V113.058ZM19.3398 110.786V113.058H12.0314V112.197V108.303H12.0521C12.1555 107.559 12.7947 106.987 13.5643 106.987C14.3214 106.987 14.9502 107.538 15.0723 108.263H15.0578V109.524C15.0578 110.216 15.6246 110.784 16.3155 110.784H19.3377L19.3398 110.786ZM17.7842 139.605H19.286V147.935H17.7842V139.605ZM26.0193 139.605H30.411V164.79H21.9421V150.528H26.0193V139.605V139.605Z" fill="#666168"/>
<path d="M9.35879 122.376C10.6075 122.376 11.6198 121.362 11.6198 120.111C11.6198 118.86 10.6075 117.846 9.35879 117.846C8.11008 117.846 7.0978 118.86 7.0978 120.111C7.0978 121.362 8.11008 122.376 9.35879 122.376Z" fill="#98959E"/>
<path fill-rule="evenodd" clip-rule="evenodd" d="M76.9214 154.75H75.8561V131.88C75.1031 130.53 73.9799 129.865 72.7904 129.726V154.75H71.7251V129.737C69.6917 130.006 67.7306 131.656 67.3397 133.934C67.2114 135.034 66.3343 135.229 65.9123 135.264C65.4386 135.304 64.7519 135.088 64.6795 134V131.355V129.417V110.473H65.7448V129.417L65.751 133.642C65.8192 134.203 66.3923 134.071 66.3654 133.598C66.2144 131.09 68.1009 129.343 69.9316 128.669C70.4343 128.483 71.0549 128.358 71.7251 128.325L72.7904 128.354C73.8703 128.466 74.977 128.841 75.8561 129.602V109.911H76.9214V154.754V154.75Z" fill="#587692"/>
<path d="M74.3233 135.063C75.0236 135.063 75.5913 134.495 75.5913 133.793C75.5913 133.091 75.0236 132.522 74.3233 132.522C73.623 132.522 73.0552 133.091 73.0552 133.793C73.0552 134.495 73.623 135.063 74.3233 135.063Z" fill="#627B94"/>
<path d="M74.3233 141.271C75.0236 141.271 75.5913 140.702 75.5913 140.001C75.5913 139.299 75.0236 138.73 74.3233 138.73C73.623 138.73 73.0552 139.299 73.0552 140.001C73.0552 140.702 73.623 141.271 74.3233 141.271Z" fill="#627B94"/>
<path d="M74.3233 147.479C75.0236 147.479 75.5913 146.91 75.5913 146.208C75.5913 145.507 75.0236 144.938 74.3233 144.938C73.623 144.938 73.0552 145.507 73.0552 146.208C73.0552 146.91 73.623 147.479 74.3233 147.479Z" fill="#627B94"/>
<path d="M74.3233 153.11C75.0236 153.11 75.5913 152.542 75.5913 151.84C75.5913 151.138 75.0236 150.569 74.3233 150.569C73.623 150.569 73.0552 151.138 73.0552 151.84C73.0552 152.542 73.623 153.11 74.3233 153.11Z" fill="#627B94"/>
<path fill-rule="evenodd" clip-rule="evenodd" d="M68.0802 135.412H59.7148V142.484C59.7148 143.549 60.5857 144.422 61.649 144.422H66.1461C67.2094 144.422 68.0802 143.549 68.0802 142.484V135.412V135.412ZM61.0222 136.67H66.7212V142.38C66.7212 142.811 66.3674 143.166 65.9372 143.166H61.8062C61.3759 143.166 61.0222 142.811 61.0222 142.38V136.67V136.67Z" fill="#A9C3DC"/>
<path fill-rule="evenodd" clip-rule="evenodd" d="M66.7212 139.524H66.2516H65.0001H64.7477V140.198V140.208V140.218V140.22V140.243V140.249V140.26V140.266V140.268V140.278V140.289L64.7456 140.307V140.309V140.312L64.7436 140.32L64.7415 140.33V140.334V140.341L64.7394 140.351L64.7374 140.357V140.361L64.7353 140.372L64.7332 140.38L64.7312 140.39L64.7291 140.401V140.403L64.727 140.411L64.725 140.421L64.7229 140.432L64.7208 140.442L64.7188 140.452L64.7167 140.463L64.7146 140.471L64.7125 140.479L64.7105 140.488L64.7063 140.496L64.7022 140.504L64.6981 140.513L64.6939 140.521L64.6898 140.529L64.6857 140.537L64.6815 140.546L64.6774 140.554L64.665 140.581V140.583L64.6608 140.589L64.6567 140.598C64.6422 140.627 64.6257 140.654 64.6091 140.68L64.6029 140.689L64.5864 140.712L64.5802 140.72L64.5678 140.734L64.5615 140.743L64.5595 140.745L64.5553 140.751L64.5491 140.759L64.5429 140.768L64.5367 140.776C64.4954 140.824 64.4498 140.867 64.4002 140.906L64.3733 140.927C64.2285 141.029 64.0527 141.091 63.8624 141.091C63.5914 141.091 63.3493 140.969 63.1859 140.776L63.1797 140.768L63.1735 140.759L63.1673 140.751L63.1632 140.745L63.1611 140.743L63.1549 140.734L63.1425 140.72L63.1363 140.712L63.1301 140.703L63.1239 140.695L63.1218 140.693L63.1177 140.689L63.1115 140.68L63.097 140.656L63.0928 140.647L63.0825 140.631L63.0784 140.622L63.0763 140.62L63.0742 140.614L63.0701 140.606L63.068 140.602L63.0659 140.598L63.0618 140.589L63.0577 140.583V140.581L63.0535 140.573L63.0494 140.564L63.0453 140.556L63.0411 140.548V140.546L63.0391 140.54L63.0349 140.531L63.0328 140.527L63.0308 140.523L63.0266 140.515L63.0246 140.508V140.506L63.0204 140.498L63.0184 140.49L63.0163 140.482L63.0142 140.473V140.471L63.0122 140.463L63.0101 140.452L63.008 140.448L63.006 140.442L63.0039 140.432L63.0018 140.426V140.421L62.9997 140.411L62.9977 140.403L62.9956 140.392L62.9935 140.382V140.38L62.9915 140.372L62.9894 140.361V140.357L62.9873 140.351L62.9853 140.341V140.334V140.33L62.9832 140.32L62.9811 140.312V140.309L62.9791 140.289V140.28V140.27V140.268V140.262V140.251V140.245V140.222V140.22V140.21V140.2V139.526H62.766H62.1827H61.0304V140.776H61.7917C61.7896 140.801 61.7896 140.823 61.7896 140.848C61.7896 141.713 62.7288 142.413 63.8872 142.413C65.0456 142.413 65.9847 141.713 65.9847 140.848C65.9847 140.823 65.9847 140.801 65.9827 140.776H66.7294V139.526L66.7212 139.524Z" fill="#A9C3DC"/>
<path d="M17.7821 139.605H15.1674V147.935H17.7821V139.605Z" fill="#666168"/>
<path fill-rule="evenodd" clip-rule="evenodd" d="M100.336 184.199H89.3455L87.5603 169.479L78.3571 168.587V160.829H100.336V184.199Z" fill="#CCE6FF"/>
<path d="M80.5725 162.719H79.2652V169.476H80.5725V162.719Z" fill="#A9C5DD"/>
<path fill-rule="evenodd" clip-rule="evenodd" d="M94.9886 181.575H93.6296V171.964C93.6296 170.596 92.5125 169.479 91.1493 169.479H78.3571V168.117H92.5084C93.8737 168.117 94.9886 169.236 94.9886 170.602V181.575V181.575Z" fill="#A9C5DD"/>
<path fill-rule="evenodd" clip-rule="evenodd" d="M128.217 156.808H104.134L103.954 134.473L113.085 134.299L112.694 148.803L120.383 150.748L120.501 145.995L123.217 143.132L128.217 143.804V156.808Z" fill="#FFE1CC"/>
<path fill-rule="evenodd" clip-rule="evenodd" d="M121.676 150.658H119.061H109.105C108.381 150.658 107.787 150.066 107.787 149.338C107.787 148.613 108.379 148.018 109.105 148.018H119.061V146.828C119.061 144.015 121.359 141.713 124.166 141.713H129.282V143.804H126.285H125.476C123.386 143.804 121.676 145.518 121.676 147.612V148.422V150.132V150.658Z" fill="#945C5B"/>
<path d="M101.548 114.438H84.7884V160.064H101.548V114.438Z" fill="#CCE6FF"/>
<path fill-rule="evenodd" clip-rule="evenodd" d="M80.0802 130.24L84.7884 128.91L88.6173 129.933L90.235 134.294L91.2341 134.692L92.3201 130.24V110.945H80.0802V130.24Z" fill="#EBF5FF"/>
<path fill-rule="evenodd" clip-rule="evenodd" d="M78.3571 118.132C85.3014 118.074 91.4637 119.255 96.7345 121.852V110.948H78.3571V118.134V118.132Z" fill="#A9C3DC"/>
<path fill-rule="evenodd" clip-rule="evenodd" d="M94.7342 147.199H93.2179H85.2745V148.488H93.2179V159.7H94.7342V148.488H98.4825V147.199H94.7342Z" fill="#A9C5DD"/>
<path fill-rule="evenodd" clip-rule="evenodd" d="M124.979 113.511H146.259V106.754H143.487H141.03L139.985 109.53L136.063 108.802L133.506 105.861L131.257 109.109L126.287 109.426L124.979 113.511Z" fill="#A6A5AD"/>
<path fill-rule="evenodd" clip-rule="evenodd" d="M105.507 135.959C106.095 158.124 102.775 154.279 124.805 154.845L124.679 159.55C120.761 159.438 115.499 159.517 111.571 159.517C109.653 159.517 107.934 159.741 106.045 159.654C103.743 159.832 102.353 160.717 101.519 157.088C101.279 154.503 101.186 151.732 101.259 148.936C101.35 145.456 103.356 146.024 104.432 143.725L102.369 141.348L104.56 138.941L102.229 136.709L102.76 135.451L105.507 135.959V135.959Z" fill="#C39E83"/>
<path fill-rule="evenodd" clip-rule="evenodd" d="M97.0345 121.649C97.9798 118.078 100.458 114.622 104.471 114.622C108.482 114.622 114.194 121.533 114.194 124.864C114.194 128.194 112.005 127.741 110.967 129.179C111.161 128.439 111.266 127.66 111.266 126.853C111.266 122.153 107.708 118.341 103.321 118.341C100.764 118.341 98.4887 119.636 97.0345 121.647V121.649ZM114.024 148.803H111.364V130.18H114.024V148.803Z" fill="#945C5B"/>
<path d="M136.76 137.942H125.362V166.44H136.76V137.942Z" fill="#A6A5AD"/>
<path fill-rule="evenodd" clip-rule="evenodd" d="M124.123 161.857H105.505C105.468 161.857 105.433 161.857 105.396 161.855C102.58 161.812 100.315 160.112 100.315 158.019C100.315 157.266 100.609 156.564 101.116 155.971C101.486 157.648 103.329 158.96 105.63 159.159H124.121V161.857H124.123Z" fill="#99625F"/>
<path d="M135.062 115.586H119.665V137.169H135.062V115.586Z" fill="#A6A5AD"/>
<path d="M144.972 115.586H137.664V137.169H144.972V115.586Z" fill="#DDDBE6"/>
<path d="M142.569 122.376C143.817 122.376 144.83 121.362 144.83 120.111C144.83 118.86 143.817 117.846 142.569 117.846C141.32 117.846 140.308 118.86 140.308 120.111C140.308 121.362 141.32 122.376 142.569 122.376Z" fill="#A4A3A9"/>
<path fill-rule="evenodd" clip-rule="evenodd" d="M145.938 139.605H141.834V149.218C141.834 149.939 141.247 150.528 140.527 150.528H139.9H139.22H137.718V165.472H139.9C140.612 165.472 141.195 166.056 141.195 166.769V171.589C141.195 172.302 140.612 172.886 139.9 172.886H121.862C121.15 172.886 120.567 172.302 120.567 171.589V166.769C120.567 166.056 121.15 165.472 121.862 165.472H124.123V139.605H118.476C117.663 139.605 116.999 138.939 116.999 138.125V118.695H115.408V123.568H112.793V117.385C112.793 116.521 113.499 115.814 114.361 115.814H116.997V114.537C116.997 113.723 117.661 113.058 118.473 113.058H122.598C123.275 110.299 125.054 108.33 127.145 108.33H129.708C129.807 106.216 131.547 104.533 133.682 104.533C135.817 104.533 137.558 106.216 137.656 108.33H137.66V108.265H139.462C139.592 106.182 141.319 104.533 143.431 104.533C145.556 104.533 147.293 106.203 147.405 108.305H147.411V108.512V108.52V108.531V114.54V115.267H147.612H147.637C150.307 115.267 152.473 117.437 152.473 120.113C152.473 122.789 150.307 124.959 147.637 124.959H147.618H147.409V138.129C147.409 138.943 146.745 139.609 145.932 139.609L145.938 139.605ZM142.571 124.955H144.972V137.167H137.664V115.584H140.837C139.023 116.283 137.734 118.044 137.734 120.109C137.734 122.785 139.9 124.955 142.571 124.955ZM147.643 122.374V122.343H147.273C146.201 122.165 145.382 121.232 145.382 120.109C145.382 118.983 146.199 118.051 147.273 117.875H147.645V117.843C148.894 117.843 149.906 118.857 149.906 120.109V120.167L149.904 120.225L149.9 120.283L149.896 120.341L149.889 120.397L149.881 120.453C149.879 120.472 149.875 120.49 149.873 120.509L149.862 120.565L149.85 120.621C149.846 120.639 149.842 120.658 149.838 120.675C149.834 120.693 149.827 120.71 149.823 120.729L149.807 120.782L149.79 120.836L149.771 120.888L149.751 120.94L149.73 120.992L149.707 121.042L149.685 121.091L149.66 121.141L149.635 121.189L149.608 121.236C149.6 121.253 149.589 121.268 149.581 121.284L149.552 121.33L149.523 121.375L149.492 121.421L149.461 121.464L149.428 121.508L149.395 121.549L149.36 121.591L149.325 121.632L149.287 121.672L149.25 121.711L149.211 121.748L149.172 121.786L149.13 121.821L149.089 121.856L149.047 121.889L149.004 121.922L148.961 121.954L148.915 121.985L148.87 122.014L148.824 122.043L148.776 122.07L148.729 122.097L148.681 122.121L148.632 122.146L148.582 122.169L148.532 122.192L148.481 122.213L148.429 122.233L148.377 122.252L148.323 122.269L148.27 122.285C148.251 122.289 148.234 122.296 148.216 122.3L148.162 122.312L148.106 122.325C148.088 122.329 148.069 122.333 148.05 122.335C148.032 122.339 148.013 122.341 147.995 122.343L147.939 122.352C147.92 122.354 147.901 122.356 147.883 122.358L147.825 122.362L147.767 122.366L147.709 122.368H147.651L147.643 122.374ZM142.943 122.343H142.571V122.374C141.321 122.374 140.31 121.361 140.31 120.109C140.31 118.857 141.321 117.843 142.571 117.843V117.875H142.943C143.067 117.895 143.187 117.926 143.303 117.966C142.984 118.612 142.804 119.34 142.804 120.109C142.804 120.878 142.984 121.605 143.303 122.252C143.187 122.291 143.065 122.323 142.941 122.343H142.943ZM135.064 126.932H127.226V128.321H135.064V129.761H127.226V131.15H135.064V137.169H119.667V115.586H122.602V121.212C122.602 122.105 123.333 122.837 124.224 122.837H130.418C131.452 122.837 132.3 121.989 132.3 120.95V115.588H135.066V126.936L135.064 126.932ZM125.321 115.584V119.272C125.321 119.676 125.649 120.005 126.053 120.005H128.848C129.251 120.005 129.58 119.676 129.58 119.272V115.584H125.323H125.321ZM125.383 113.058H132.298H135.064V112.26L135.026 108.33C134.935 107.671 134.371 107.163 133.686 107.163C133.003 107.163 132.439 107.671 132.346 108.33L132.368 109.557C132.381 110.193 131.88 110.722 131.257 110.78C131.278 110.817 131.301 110.852 131.322 110.89H128.02C126.909 110.89 125.933 111.756 125.383 113.058V113.058ZM137.666 110.786V113.058H144.974V112.197V108.303H144.954C144.85 107.559 144.211 106.987 143.442 106.987C142.684 106.987 142.056 107.538 141.934 108.263H141.948V109.524C141.948 110.216 141.381 110.784 140.69 110.784H137.668L137.666 110.786ZM139.222 139.605H137.72V147.935H139.222V139.605ZM130.986 139.605H126.595V164.79H135.064V150.528H130.986V139.605Z" fill="#666168"/>
<path d="M147.641 122.376C148.89 122.376 149.902 121.362 149.902 120.111C149.902 118.86 148.89 117.846 147.641 117.846C146.392 117.846 145.38 118.86 145.38 120.111C145.38 121.362 146.392 122.376 147.641 122.376Z" fill="#98959E"/>
<path d="M137.662 136.589H135.062V159.221H137.662V136.589Z" fill="#666168"/>
<path fill-rule="evenodd" clip-rule="evenodd" d="M80.0802 154.75H81.1455V131.88C81.8985 130.53 83.0218 129.865 84.2112 129.726V154.75H85.2765V129.737C87.31 130.006 89.271 131.656 89.662 133.934C89.7902 135.034 90.6673 135.229 91.0893 135.264C91.563 135.304 92.2498 135.088 92.3222 134V131.355V129.417V110.473H91.2569V129.417L91.2507 133.642C91.1824 134.203 90.6094 134.071 90.6363 133.598C90.7873 131.09 88.9007 129.343 87.07 128.669C86.5674 128.483 85.9468 128.358 85.2765 128.325L84.2112 128.354C83.1314 128.466 82.0247 128.841 81.1455 129.602V109.911H80.0802V154.754V154.75Z" fill="#587692"/>
<path fill-rule="evenodd" clip-rule="evenodd" d="M88.9193 135.412H97.2848V142.484C97.2848 143.549 96.4139 144.422 95.3506 144.422H90.8535C89.7902 144.422 88.9193 143.549 88.9193 142.484V135.412V135.412ZM95.9774 136.67H90.2784V142.38C90.2784 142.811 90.6322 143.166 91.0624 143.166H95.1934C95.6237 143.166 95.9774 142.811 95.9774 142.38V136.67V136.67Z" fill="#A9C3DC"/>
<path fill-rule="evenodd" clip-rule="evenodd" d="M90.2784 139.524H90.748H91.9995H92.2519V140.198V140.208V140.218V140.22V140.243V140.249V140.26V140.266V140.268V140.278V140.289L92.2539 140.307V140.309V140.312L92.256 140.32L92.2581 140.33V140.334V140.341L92.2601 140.351L92.2622 140.357V140.361L92.2643 140.372L92.2663 140.38L92.2684 140.39L92.2705 140.401V140.403L92.2726 140.411L92.2746 140.421L92.2767 140.432L92.2788 140.442L92.2808 140.452L92.2829 140.463L92.285 140.471L92.287 140.479L92.2891 140.488L92.2932 140.496L92.2974 140.504L92.3015 140.513L92.3057 140.521L92.3098 140.529L92.3139 140.537L92.3181 140.546L92.3222 140.554L92.3346 140.581V140.583L92.3388 140.589L92.3429 140.598C92.3574 140.627 92.3739 140.654 92.3905 140.68L92.3967 140.689L92.4132 140.712L92.4194 140.72L92.4318 140.734L92.438 140.743L92.4401 140.745L92.4443 140.751L92.4505 140.759L92.4567 140.768L92.4629 140.776C92.5042 140.824 92.5498 140.867 92.5994 140.906L92.6263 140.927C92.7711 141.029 92.9469 141.091 93.1372 141.091C93.4082 141.091 93.6502 140.969 93.8137 140.776L93.8199 140.768L93.8261 140.759L93.8323 140.751L93.8364 140.745L93.8385 140.743L93.8447 140.734L93.8571 140.72L93.8633 140.712L93.8695 140.703L93.8757 140.695L93.8778 140.693L93.8819 140.689L93.8881 140.68L93.9026 140.656L93.9067 140.647L93.9171 140.631L93.9212 140.622L93.9233 140.62L93.9254 140.614L93.9295 140.606L93.9316 140.602L93.9336 140.598L93.9378 140.589L93.9419 140.583V140.581L93.9461 140.573L93.9502 140.564L93.9543 140.556L93.9585 140.548V140.546L93.9605 140.54L93.9647 140.531L93.9667 140.527L93.9688 140.523L93.9729 140.515L93.975 140.508V140.506L93.9792 140.498L93.9812 140.49L93.9833 140.482L93.9854 140.473V140.471L93.9874 140.463L93.9895 140.452L93.9916 140.448L93.9936 140.442L93.9957 140.432L93.9978 140.426V140.421L93.9998 140.411L94.0019 140.403L94.004 140.392L94.006 140.382V140.38L94.0081 140.372L94.0102 140.361V140.357L94.0122 140.351L94.0143 140.341V140.334V140.33L94.0164 140.32L94.0185 140.312V140.309L94.0205 140.289V140.28V140.27V140.268V140.262V140.251V140.245V140.222V140.22V140.21V140.2V139.526H94.2336H94.8169H95.9691V140.776H95.2079C95.21 140.801 95.21 140.823 95.21 140.848C95.21 141.713 94.2708 142.413 93.1124 142.413C91.954 142.413 91.0148 141.713 91.0148 140.848C91.0148 140.823 91.0148 140.801 91.0169 140.776H90.2701V139.526L90.2784 139.524Z" fill="#A9C3DC"/>
<path fill-rule="evenodd" clip-rule="evenodd" d="M140.603 140.057H134.942C133.09 140.057 131.574 141.576 131.574 143.431V144.672C131.574 145.846 132.532 146.805 133.703 146.805H141.971C142.529 146.805 142.986 146.347 142.986 145.788V142.442C142.986 141.13 141.915 140.055 140.603 140.055V140.057Z" fill="#9A5F61"/>
<path fill-rule="evenodd" clip-rule="evenodd" d="M140.173 145.808H135.074C133.947 145.808 133.024 144.884 133.024 143.754C133.024 142.625 133.947 141.7 135.074 141.7H140.173V145.808V145.808Z" fill="#FFE0C9"/>
<path d="M141.834 139.605H139.22V147.935H141.834V139.605Z" fill="#666168"/>
<path d="M82.8852 131.801H82.4694C82.209 131.801 81.9978 132.013 81.9978 132.274V135.31C81.9978 135.571 82.209 135.783 82.4694 135.783H82.8852C83.1457 135.783 83.3569 135.571 83.3569 135.31V132.274C83.3569 132.013 83.1457 131.801 82.8852 131.801Z" fill="#C0CCDA"/>
<path d="M82.8852 138.009H82.4694C82.209 138.009 81.9978 138.22 81.9978 138.481V141.518C81.9978 141.779 82.209 141.99 82.4694 141.99H82.8852C83.1457 141.99 83.3569 141.779 83.3569 141.518V138.481C83.3569 138.22 83.1457 138.009 82.8852 138.009Z" fill="#C0CCDA"/>
<path d="M82.8852 144.216H82.4694C82.209 144.216 81.9978 144.428 81.9978 144.689V147.726C81.9978 147.987 82.209 148.198 82.4694 148.198H82.8852C83.1457 148.198 83.3569 147.987 83.3569 147.726V144.689C83.3569 144.428 83.1457 144.216 82.8852 144.216Z" fill="#C0CCDA"/>
<path d="M82.8852 149.848H82.4694C82.209 149.848 81.9978 150.06 81.9978 150.321V153.357C81.9978 153.618 82.209 153.83 82.4694 153.83H82.8852C83.1457 153.83 83.3569 153.618 83.3569 153.357V150.321C83.3569 150.06 83.1457 149.848 82.8852 149.848Z" fill="#C0CCDA"/>
<path fill-rule="evenodd" clip-rule="evenodd" d="M16.3879 140.057H22.0497C23.9011 140.057 25.4174 141.576 25.4174 143.431V144.672C25.4174 145.846 24.4596 146.805 23.2888 146.805H15.0206C14.462 146.805 14.0049 146.347 14.0049 145.788V142.442C14.0049 141.13 15.0764 140.055 16.3879 140.055V140.057Z" fill="#9A5F61"/>
<path fill-rule="evenodd" clip-rule="evenodd" d="M16.8182 145.808H21.9173C23.0447 145.808 23.9673 144.884 23.9673 143.754C23.9673 142.625 23.0447 141.7 21.9173 141.7H16.8182V145.808V145.808Z" fill="#FFE0C9"/>
<path d="M19.8466 139.145H17.3105V148.573H19.8466V139.145Z" fill="#DDDBE6"/>
<path d="M17.3105 139.145H15.1736V149.23H17.3105V139.145Z" fill="#666168"/>
<path d="M21.938 136.589H19.3377V159.221H21.938V136.589Z" fill="#666168"/>
<path d="M139.697 139.145H137.161V148.573H139.697V139.145Z" fill="#DDDBE6"/>
<path d="M141.834 139.145H139.697V149.23H141.834V139.145Z" fill="#666168"/>
<path d="M137.67 136.589H135.07V159.221H137.67V136.589Z" fill="#666168"/>
<path fill-rule="evenodd" clip-rule="evenodd" d="M20.219 164.423H25.5746C27.3867 164.423 28.8678 162.939 28.8678 161.123V159.909C28.8678 158.763 27.9307 157.824 26.7868 157.824H18.8826C18.3365 157.824 17.8897 158.271 17.8897 158.819V162.089C17.8897 163.374 18.9385 164.423 20.219 164.423V164.423Z" fill="#9A5F61"/>
<path fill-rule="evenodd" clip-rule="evenodd" d="M21.2864 161.803H24.9457C25.7214 161.803 26.3565 161.167 26.3565 160.39C26.3565 159.613 25.7214 158.976 24.9457 158.976H21.2864V161.805V161.803Z" fill="#FFE0C9"/>
<path fill-rule="evenodd" clip-rule="evenodd" d="M20.4631 150.528H25.227C27.2295 150.528 28.8678 152.169 28.8678 154.176V155.519C28.8678 156.787 27.8335 157.824 26.5675 157.824H18.9861C18.382 157.824 17.8876 157.328 17.8876 156.723V153.108C17.8876 151.689 19.0461 150.528 20.4631 150.528Z" fill="#9A5F61"/>
<path fill-rule="evenodd" clip-rule="evenodd" d="M21.2864 156.304H24.9457C25.7214 156.304 26.3565 155.668 26.3565 154.891C26.3565 154.114 25.7214 153.477 24.9457 153.477H21.2864V156.307V156.304Z" fill="#FFE0C9"/>
<path fill-rule="evenodd" clip-rule="evenodd" d="M136.783 164.423H131.427C129.615 164.423 128.134 162.939 128.134 161.123V159.909C128.134 158.763 129.071 157.824 130.215 157.824H138.119C138.665 157.824 139.112 158.271 139.112 158.819V162.089C139.112 163.374 138.063 164.423 136.783 164.423Z" fill="#9A5F61"/>
<path fill-rule="evenodd" clip-rule="evenodd" d="M135.713 161.803H132.054C131.278 161.803 130.643 161.167 130.643 160.39C130.643 159.613 131.278 158.976 132.054 158.976H135.713V161.805V161.803Z" fill="#FFE0C9"/>
<path fill-rule="evenodd" clip-rule="evenodd" d="M136.783 151.222H131.427C129.615 151.222 128.134 152.706 128.134 154.522V155.737C128.134 156.883 129.071 157.822 130.215 157.822H138.119C138.665 157.822 139.112 157.374 139.112 156.827V153.556C139.112 152.271 138.063 151.222 136.783 151.222Z" fill="#9A5F61"/>
<path fill-rule="evenodd" clip-rule="evenodd" d="M135.713 153.842H132.054C131.278 153.842 130.643 154.478 130.643 155.256C130.643 156.033 131.278 156.669 132.054 156.669H135.713V153.84V153.842Z" fill="#FFE0C9"/>
<path fill-rule="evenodd" clip-rule="evenodd" d="M78.3571 167.483C81.9337 167.489 86.7308 166.525 89.1779 169.479C91.019 171.271 90.1212 178.607 90.146 183.335L93.613 181.558L94.9886 181.575L98.4784 183.26L98.4866 164.682L98.4453 161.872L86.6666 161.979C87.5768 160.292 87.9347 159.567 87.7154 156.957L88.3732 159.084L90.1957 159.072L92.9035 159.092L94.2791 159.098L98.4825 159.13L98.4887 148.582L98.4825 147.197C98.559 144.898 99.5147 145.228 100.501 143.723L98.3294 141.201L100.495 138.834L98.317 136.305L101.23 133.552L102.762 135.449L102.231 136.707L104.562 138.939L102.371 141.346L104.434 143.723C103.358 146.022 101.352 145.454 101.261 148.934C101.188 151.73 101.439 154.501 101.678 157.086L102.014 160.941C100.923 160.56 101.439 164.098 101.439 166.425L101.283 186.439C99.8126 187.229 99.6637 186.966 98.0543 186.396C97.0055 185.559 95.5678 185.038 94.1881 184.607C92.9779 184.97 93.4061 184.696 92.9097 185.432L89.9185 186.682C88.6546 187.076 88.1395 186.881 87.3017 186.288C87.3617 182.391 87.5851 177.179 87.3224 173.394C87.0349 169.224 82.335 169.966 78.3529 170.055V167.485L78.3571 167.483Z" fill="#627B94"/>
<path fill-rule="evenodd" clip-rule="evenodd" d="M78.6446 167.483C75.068 167.489 70.2709 166.525 67.8237 169.479C65.9827 171.271 66.8804 178.607 66.8556 183.335L63.3886 181.558L62.013 181.575L58.5233 183.26L58.515 164.682L58.5564 161.872L70.335 161.979C69.4248 160.292 69.067 159.567 69.2862 156.957L68.6284 159.084L66.806 159.072L64.0982 159.092L62.7225 159.098L58.5192 159.13L58.5129 148.582L58.5192 147.197C58.4426 144.898 57.4869 145.228 56.5002 143.723L58.6722 141.201L56.5064 138.834L58.6846 136.305L55.772 133.552L54.2392 135.449L54.7708 136.707L52.4395 138.939L54.6302 141.346L52.5678 143.723C53.6434 146.022 55.65 145.454 55.741 148.934C55.8134 151.73 55.5631 154.501 55.3232 157.086L54.988 160.941C56.0782 160.56 55.5631 164.098 55.5631 166.425L55.7183 186.439C57.189 187.229 57.338 186.966 58.9473 186.396C59.9961 185.559 61.4338 185.038 62.8136 184.607C64.0237 184.97 63.5955 184.696 64.092 185.432L67.0832 186.682C68.3471 187.076 68.8622 186.881 69.7 186.288C69.64 182.391 69.4166 177.179 69.6793 173.394C69.9668 169.224 74.6667 169.966 78.6487 170.055V167.485L78.6446 167.483Z" fill="#627B94"/>
<path fill-rule="evenodd" clip-rule="evenodd" d="M78.3571 163.277H78.6446H83.661C86.3129 163.277 88.4849 161.103 88.4849 158.443C88.4849 155.786 86.315 153.61 83.661 153.61H78.6446H78.3571H73.3407C70.6888 153.61 68.5167 155.784 68.5167 158.443C68.5167 161.101 70.6867 163.277 73.3407 163.277H78.3571Z" fill="#A7611C"/>
<path fill-rule="evenodd" clip-rule="evenodd" d="M78.3571 161.88H78.6446H83.5906C85.4772 161.88 87.0183 160.334 87.0183 158.446C87.0183 156.555 85.4751 155.011 83.5906 155.011H78.6446H78.3571H73.411C71.5245 155.011 69.9834 156.557 69.9834 158.446C69.9834 160.336 71.5265 161.88 73.411 161.88H78.3571Z" fill="#DB8A39"/>
<path fill-rule="evenodd" clip-rule="evenodd" d="M78.4998 151.025L80.0513 155.836L85.0966 155.826L81.009 158.79L82.577 163.596L78.4998 160.616L74.4246 163.596L75.9926 158.79L71.9051 155.826L76.9504 155.836L78.4998 151.025Z" stroke="#B06B28" stroke-width="2.49986" stroke-miterlimit="22.9256" stroke-linejoin="round"/>
<path fill-rule="evenodd" clip-rule="evenodd" d="M78.4998 151.025L80.0513 155.836L85.0966 155.826L81.009 158.79L82.577 163.596L78.4998 160.616L74.4246 163.596L75.9926 158.79L71.9051 155.826L76.9504 155.836L78.4998 151.025Z" fill="#F2AB15"/>
<path fill-rule="evenodd" clip-rule="evenodd" d="M82.577 163.596L78.4998 160.616V157.973L82.577 163.596Z" fill="#D68A3C"/>
<path fill-rule="evenodd" clip-rule="evenodd" d="M81.009 158.79L78.4998 157.973L85.0966 155.826L81.009 158.79Z" fill="#D68A3C"/>
<path fill-rule="evenodd" clip-rule="evenodd" d="M74.4246 163.596L78.4998 157.973L71.9051 155.826L75.9926 158.79L74.4246 163.596Z" fill="#D68A3C"/>
<path fill-rule="evenodd" clip-rule="evenodd" d="M78.4998 151.025L76.9504 155.836H78.4998V151.025Z" fill="#D68A3C"/>
<path fill-rule="evenodd" clip-rule="evenodd" d="M48.2547 123.574L35.1874 123.554C31.8238 123.55 29.0705 126.312 29.0705 129.683V129.735C29.0705 133.105 31.8466 135.764 35.2122 135.764H52.6216C56.4857 135.764 60.6705 129.09 60.2671 123.591V113.625H64.6815V110.943H60.2671H59.0177H57.7683C51.2935 112.295 48.7988 116.361 48.3416 121.549C48.2837 122.204 48.2568 122.88 48.2547 123.572V123.574Z" fill="#724947"/>
<path fill-rule="evenodd" clip-rule="evenodd" d="M57.4766 126.174L35.3756 126.153C33.4415 126.151 31.859 127.739 31.859 129.676V129.708C31.859 131.646 33.456 133.173 35.388 133.173H51.3556C53.5773 133.173 57.4331 129.059 57.4745 126.176L57.4766 126.174Z" fill="#BFA29E"/>
<path d="M35.5473 132.698C37.2222 132.698 38.5799 131.338 38.5799 129.66C38.5799 127.982 37.2222 126.621 35.5473 126.621C33.8725 126.621 32.5147 127.982 32.5147 129.66C32.5147 131.338 33.8725 132.698 35.5473 132.698Z" fill="#D38A3B"/>
<path d="M35.5473 131.049C36.3128 131.049 36.9333 130.427 36.9333 129.66C36.9333 128.893 36.3128 128.271 35.5473 128.271C34.7819 128.271 34.1613 128.893 34.1613 129.66C34.1613 130.427 34.7819 131.049 35.5473 131.049Z" fill="#FFD09A"/>
<path fill-rule="evenodd" clip-rule="evenodd" d="M51.1446 123.508L57.5738 123.529L57.5428 113.854C52.5305 114.685 51.1653 118.183 51.1446 123.506V123.508Z" fill="#937976"/>
<path fill-rule="evenodd" clip-rule="evenodd" d="M108.745 123.574L121.812 123.554C125.176 123.55 127.929 126.312 127.929 129.683V129.735C127.929 133.105 125.153 135.764 121.787 135.764H104.378C100.514 135.764 96.3291 129.09 96.7325 123.591V113.625H92.3181V110.943H96.7325H97.9819H99.2313C105.706 112.295 108.201 116.361 108.658 121.549C108.716 122.204 108.743 122.88 108.745 123.572V123.574Z" fill="#724947"/>
<path fill-rule="evenodd" clip-rule="evenodd" d="M99.5251 126.174L121.626 126.153C123.56 126.151 125.143 127.739 125.143 129.676V129.708C125.143 131.646 123.546 133.173 121.614 133.173H105.646C103.424 133.173 99.5685 129.059 99.5271 126.176L99.5251 126.174Z" fill="#BFA29E"/>
<path d="M121.452 132.698C123.127 132.698 124.485 131.338 124.485 129.66C124.485 127.982 123.127 126.621 121.452 126.621C119.777 126.621 118.42 127.982 118.42 129.66C118.42 131.338 119.777 132.698 121.452 132.698Z" fill="#D38A3B"/>
<path d="M121.452 131.049C122.218 131.049 122.838 130.427 122.838 129.66C122.838 128.893 122.218 128.271 121.452 128.271C120.687 128.271 120.066 128.893 120.066 129.66C120.066 130.427 120.687 131.049 121.452 131.049Z" fill="#FFD09A"/>
<path fill-rule="evenodd" clip-rule="evenodd" d="M105.855 123.508L99.4258 123.529L99.4568 113.854C104.469 114.685 105.834 118.183 105.855 123.506V123.508Z" fill="#937976"/>
<path fill-rule="evenodd" clip-rule="evenodd" d="M117.809 83.789H121.208L124.607 78.97V72.3705L127.431 70.6937L124.872 66.8219L131.44 64.7222L131.799 61.9158L123.912 59.7457L124.607 49.0049H117.809V83.789Z" fill="#FCB393"/>
<path fill-rule="evenodd" clip-rule="evenodd" d="M39.308 83.789H35.9093L32.5106 78.97V72.3705L29.687 70.6937L32.2458 66.8219L25.678 64.7222L25.3181 61.9158L33.2057 59.7457L32.5106 49.0049H39.308V83.789Z" fill="#FCB393"/>
<path fill-rule="evenodd" clip-rule="evenodd" d="M84.4967 77.3222H119.315V54.2115H84.4967V64.0071L88.9918 65.9451L88.9959 70.733L84.4967 71.6554V77.3222Z" fill="#FFE1CC"/>
<path fill-rule="evenodd" clip-rule="evenodd" d="M72.505 77.3222H37.6842V54.2115H72.505V64.7409L67.59 65.2653V70.1361L72.505 71.3403V77.3222Z" fill="#FFE1CC"/>
<path fill-rule="evenodd" clip-rule="evenodd" d="M33.7621 54.2219C34.8936 53.5711 35.7997 52.9327 37.2415 52.3689L37.1753 51.144L35.1212 50.9305L33.6814 50.8372L33.7621 54.224V54.2219Z" fill="#FDB493"/>
<path d="M59.5576 50.0599H39.4694V56.2283H59.5576V50.0599Z" fill="#B99E93"/>
<path d="M72.1223 50.0599H59.5597V56.2283H72.1223V50.0599Z" fill="#8C6761"/>
<path d="M59.5597 56.2283C65.0549 56.2283 69.5096 53.5696 69.5096 50.29C69.5096 47.0103 65.0549 44.3517 59.5597 44.3517C54.0644 44.3517 49.6097 47.0103 49.6097 50.29C49.6097 53.5696 54.0644 56.2283 59.5597 56.2283Z" fill="#744C4A"/>
<path d="M39.4714 50.0599H36.6995V56.2283H39.4714V50.0599Z" fill="#95625F"/>
<path d="M59.5597 54.4395C63.3983 54.4395 66.5102 52.5817 66.5102 50.29C66.5102 47.9983 63.3983 46.1404 59.5597 46.1404C55.721 46.1404 52.6091 47.9983 52.6091 50.29C52.6091 52.5817 55.721 54.4395 59.5597 54.4395Z" fill="#BCB2B1"/>
<path d="M59.5597 53.4053C61.559 53.4053 63.1797 52.4903 63.1797 51.3616C63.1797 50.2329 61.559 49.3179 59.5597 49.3179C57.5604 49.3179 55.9396 50.2329 55.9396 51.3616C55.9396 52.4903 57.5604 53.4053 59.5597 53.4053Z" fill="#201E1E"/>
<path fill-rule="evenodd" clip-rule="evenodd" d="M67.1763 108.715L67.4597 107.586L69.8427 107.482C70.4343 108.5 70.4509 109.47 71.5245 109.957C72.9642 110.61 73.622 109.681 74.1454 108.695L74.4164 107.59L76.8139 107.503C77.4014 108.549 77.3559 109.466 78.4832 109.965C78.5681 110.002 78.6508 110.036 78.7315 110.062V101.772V97.6304C71.0714 97.6512 61.9117 98.957 57.8076 94.3183C52.6009 88.4339 72.778 91.8227 78.7315 89.9304L78.6446 72.4699L67.2838 72.1093C61.0966 71.9828 57.4497 73.5892 54.4606 77.3242C51.9017 80.5224 52.8202 82.8086 52.7953 88.5727C52.7871 90.4361 52.9194 90.7967 51.4756 91.346C48.8774 90.5377 50.1992 87.296 49.98 81.5442C49.891 79.1896 48.1554 75.5645 47.4004 73.3052C45.4166 67.3628 43.9976 60.3529 39.5397 59.4617C39.4797 72.5943 38.3151 80.1742 43.6397 91.0703C46.8874 97.7133 54.1896 105.702 63.0639 107.171C63.308 108.504 63.3535 109.515 64.516 109.998C65.9413 110.591 66.6612 109.716 67.1763 108.719V108.715Z" fill="#F29B76"/>
<path fill-rule="evenodd" clip-rule="evenodd" d="M123.237 54.2219C122.106 53.5711 121.2 52.9327 119.758 52.3689L119.824 51.144L121.878 50.9305L123.318 50.8372L123.237 54.224V54.2219Z" fill="#FDB493"/>
<path d="M117.53 50.0599H97.442V56.2283H117.53V50.0599Z" fill="#B99E93"/>
<path d="M97.4399 50.0599H84.0002V56.2283H97.4399V50.0599Z" fill="#8C6761"/>
<path d="M97.442 56.2283C102.937 56.2283 107.392 53.5696 107.392 50.29C107.392 47.0103 102.937 44.3517 97.442 44.3517C91.9468 44.3517 87.492 47.0103 87.492 50.29C87.492 53.5696 91.9468 56.2283 97.442 56.2283Z" fill="#744C4A"/>
<path d="M120.302 50.0599H117.53V56.2283H120.302V50.0599Z" fill="#95625F"/>
<path d="M97.442 54.4395C101.281 54.4395 104.393 52.5817 104.393 50.29C104.393 47.9983 101.281 46.1404 97.442 46.1404C93.6033 46.1404 90.4915 47.9983 90.4915 50.29C90.4915 52.5817 93.6033 54.4395 97.442 54.4395Z" fill="#BCB2B1"/>
<path d="M97.442 53.4053C99.4413 53.4053 101.062 52.4903 101.062 51.3616C101.062 50.2329 99.4413 49.3179 97.442 49.3179C95.4427 49.3179 93.8219 50.2329 93.8219 51.3616C93.8219 52.4903 95.4427 53.4053 97.442 53.4053Z" fill="#201E1E"/>
<path fill-rule="evenodd" clip-rule="evenodd" d="M89.8254 108.715L89.542 107.586L87.159 107.482C86.5673 108.5 86.5508 109.47 85.4772 109.957C84.0374 110.61 83.3796 109.681 82.8563 108.695L82.5853 107.59L80.1878 107.503C79.6003 108.549 79.6458 109.466 78.5184 109.965C78.4336 110.002 78.3509 110.036 78.2702 110.062V101.772V97.6304C85.9302 97.6512 95.09 98.957 99.1941 94.3183C104.401 88.4339 84.2236 91.8227 78.2702 89.9304L78.3571 72.4699L89.7178 72.1093C95.905 71.9828 99.552 73.5892 102.541 77.3242C105.1 80.5224 104.182 82.8086 104.206 88.5727C104.215 90.4361 104.082 90.7967 105.526 91.346C108.124 90.5377 106.802 87.296 107.022 81.5442C107.111 79.1896 108.846 75.5645 109.601 73.3052C111.585 67.3628 113.004 60.3529 117.462 59.4617C117.522 72.5943 118.687 80.1742 113.362 91.0703C110.114 97.7133 102.812 105.702 93.9378 107.171C93.6937 108.504 93.6482 109.515 92.4856 109.998C91.0604 110.591 90.3405 109.716 89.8254 108.719V108.715Z" fill="#F29B76"/>
<path fill-rule="evenodd" clip-rule="evenodd" d="M30.3799 58.0834C30.7668 57.5859 30.9736 56.9268 31.0109 56.1143L31.2094 50.4393L33.9648 50.8372L33.9959 53.6748C34.029 55.876 33.1208 59.4638 32.9326 61.8972C32.8747 62.6516 30.4978 60.9002 30.4937 61.8868C27.939 63.1449 26.3834 61.9635 26.3503 63.3999C26.3172 64.8342 28.1831 63.8724 30.8392 64.1274C32.2106 66.9131 32.1734 67.0312 34.2813 69.0749C33.5883 69.5288 32.2541 70.3952 31.4266 71.0295L35.3384 71.1062C35.3611 73.0814 35.1646 73.5457 36.7264 74.2919L36.6706 70.3724L36.6892 67.2219L36.7636 56.2304L39.6659 56.1744L40.2823 56.7009C44.8436 57.6046 45.9586 60.6846 47.4645 64.8901C48.8133 68.6583 50.1206 72.4389 51.5024 76.2361C57.067 71.1373 58.2213 69.6387 66.0178 69.7029C66.9032 71.1373 67.7017 71.6782 69.4517 72.5094L67.6479 72.5985C61.4607 72.4721 57.4745 73.5851 54.4854 77.3201C51.9265 80.5183 52.845 82.8045 52.8201 88.5687C52.8119 90.432 52.9443 90.7927 51.5004 91.3419C48.9022 90.5336 50.224 87.2919 50.0048 81.5401C49.9158 79.1855 48.1803 75.5604 47.4252 73.3011C45.4414 67.3587 44.0224 60.3488 39.5645 59.4576C39.5045 72.5902 38.3399 80.1701 43.6645 91.0663C46.9122 97.7093 54.2144 105.697 63.0887 107.167C63.3328 108.5 63.3783 109.511 64.5409 109.994C65.9661 110.587 66.686 109.712 67.2011 108.715L67.4845 107.586L69.8675 107.482C70.4591 108.5 70.4757 109.47 71.5493 109.957C72.989 110.61 73.6468 109.681 74.1702 108.695L74.4412 107.59L76.8387 107.503C77.4241 108.547 77.3807 109.461 78.4998 109.961C79.6189 109.461 79.5755 108.545 80.1609 107.503L82.5584 107.59L82.8294 108.695C83.3527 109.681 84.0126 110.612 85.4503 109.957C86.5239 109.47 86.5384 108.5 87.1321 107.482L89.5151 107.586L89.7985 108.715C90.3136 109.712 91.0335 110.587 92.4587 109.994C93.6192 109.511 93.6647 108.502 93.9109 107.167C102.785 105.697 110.089 97.7093 113.335 91.0663C118.66 80.1721 117.497 72.5902 117.435 59.4576C112.977 60.3488 111.558 67.3587 109.574 73.3011C108.819 75.5604 107.084 79.1876 106.995 81.5401C106.776 87.2919 108.097 90.5315 105.499 91.3419C104.055 90.7927 104.188 90.4341 104.179 88.5687C104.155 82.8045 105.071 80.5162 102.514 77.3201C99.5251 73.5851 95.5389 72.47 89.3517 72.5985L87.5479 72.5094C89.2979 71.6782 89.8275 71.1373 90.7128 69.7029C98.5094 69.6366 99.9326 71.1373 105.495 76.2361C106.877 72.4389 108.184 68.6583 109.533 64.8901C111.039 60.6846 112.154 57.6046 116.715 56.7009L117.332 56.1744L120.234 56.2304L120.308 67.2219L120.327 70.3724L120.271 74.2919C121.835 73.5457 121.636 73.0814 121.659 71.1062L125.571 71.0295C124.743 70.3932 123.409 69.5288 122.716 69.0749C124.822 67.0333 124.787 66.9152 126.158 64.1274C128.814 63.8724 130.682 64.8342 130.647 63.3999C130.614 61.9656 129.059 63.147 126.504 61.8868C126.502 60.9002 124.125 62.6495 124.065 61.8972C123.877 59.4638 122.966 55.878 123.002 53.6748L123.033 50.8372L125.788 50.4393L125.987 56.1143C126.024 56.9268 126.231 57.5859 126.618 58.0834C129.22 61.0784 133.156 58.9208 133.473 63.0827C133.872 68.308 127.364 66.3182 125.846 67.2427C126.278 68.6438 126.28 67.7919 127.503 68.6977C131.042 71.3196 125.865 74.2214 125.858 74.2276C125.641 80.1701 124.777 83.2563 120.244 85.0575C117.516 86.1415 119.185 84.985 116.914 90.0983C113.654 97.4398 108.116 104.344 101.039 107.731C98.9376 108.736 96.9 108.85 95.903 110.869C94.7487 112.438 94.3412 112.927 90.8494 112.809C89.1386 112.552 89.2586 111.994 88.3815 111.862C87.5748 111.739 87.2645 112.353 86.1557 112.726C82.9514 113.806 82.3722 110.689 79.8134 112.562C78.7087 113.12 78.0054 113.047 77.1821 112.562C74.6232 110.689 74.044 113.806 70.8398 112.726C69.7331 112.353 69.4207 111.737 68.6139 111.862C67.7348 111.996 67.8568 112.552 66.1461 112.809C62.6522 112.927 62.0627 112.49 61.0925 110.869C60.1864 108.759 58.0558 108.734 55.9561 107.731C48.8795 104.346 43.3439 97.4398 40.0817 90.0983C37.8124 84.987 39.4818 86.1436 36.7512 85.0575C32.2189 83.2563 31.3563 80.1701 31.137 74.2276C31.1308 74.2214 25.9531 71.3196 29.4925 68.6977C30.7151 67.7919 30.715 68.6438 31.1495 67.2427C29.6311 66.3182 23.1233 68.3101 23.5225 63.0827C23.8411 58.9228 27.7756 61.0805 30.3779 58.0834H30.3799ZM122.886 76.0951C122.141 76.7895 121.467 77.0548 120.213 77.3056L119.613 82.1868C121.463 81.2624 123.341 79.1565 122.886 76.0951V76.0951ZM34.1138 76.0951C34.8585 76.7895 35.5328 77.0548 36.7864 77.3056L37.3863 82.1868C35.537 81.2624 33.6587 79.1565 34.1138 76.0951Z" fill="#D46B3B"/>
<path fill-rule="evenodd" clip-rule="evenodd" d="M36.7264 52.1472C32.9947 53.4094 30.2951 57.0802 30.2951 61.4101C30.2951 65.7399 32.9947 69.4107 36.7264 70.6729V52.1472V52.1472Z" fill="#8E5A5C"/>
<path fill-rule="evenodd" clip-rule="evenodd" d="M36.7264 55.2085C34.5296 56.3215 33.0133 58.6803 33.0133 61.41C33.0133 64.1398 34.5296 66.4985 36.7264 67.6115V55.2064V55.2085Z" fill="#FEE2CC"/>
<path fill-rule="evenodd" clip-rule="evenodd" d="M120.273 52.1472C124.005 53.4094 126.704 57.0802 126.704 61.4101C126.704 65.7399 124.005 69.4107 120.273 70.6729V52.1472V52.1472Z" fill="#8E5A5C"/>
<path fill-rule="evenodd" clip-rule="evenodd" d="M120.273 55.2085C122.47 56.3215 123.986 58.6803 123.986 61.41C123.986 64.1398 122.47 66.4985 120.273 67.6115V55.2064V55.2085Z" fill="#FEE2CC"/>
<path fill-rule="evenodd" clip-rule="evenodd" d="M79.7906 80.1182V79.343V77.6289C79.7906 76.7978 80.4691 76.12 81.2966 76.12C82.1261 76.12 82.8025 76.7998 82.8025 77.6289V82.2075C83.1769 82.9309 83.934 83.4283 84.7987 83.4283C85.7068 83.4283 86.4929 82.8811 86.8466 82.1018V77.631C86.8466 76.7998 87.5251 76.1221 88.3526 76.1221C89.1821 76.1221 89.8585 76.8019 89.8585 77.631V82.1018C90.2122 82.8832 90.9983 83.4283 91.9064 83.4283C93.1434 83.4283 94.155 82.4148 94.155 81.1753V79.5524C100.082 81.4696 104.38 88.4484 99.1879 94.3162C95.1252 98.9073 86.1081 97.674 78.4957 97.6284C70.8832 97.6719 61.8662 98.9073 57.8034 94.3162C52.6112 88.4484 56.9098 81.4696 62.8363 79.5524V81.1753C62.8363 82.4148 63.8479 83.4283 65.0849 83.4283C65.993 83.4283 66.7791 82.8811 67.1328 82.1018V77.631C67.1328 76.7998 67.8113 76.1221 68.6388 76.1221C69.4683 76.1221 70.1447 76.8019 70.1447 77.631V82.1018C70.4984 82.8832 71.2845 83.4283 72.1926 83.4283C73.0573 83.4283 73.8144 82.9309 74.1888 82.2075V77.6289C74.1888 76.7978 74.8673 76.12 75.6948 76.12C76.5243 76.12 77.2007 76.7998 77.2007 77.6289V79.343V80.1182V81.7142C77.2007 82.5122 77.753 83.1858 78.4915 83.3744C79.2321 83.1858 79.7823 82.5101 79.7823 81.7142V80.1182H79.7906Z" fill="#D46B3B"/>
<path fill-rule="evenodd" clip-rule="evenodd" d="M78.4998 85.7021C80.5705 85.4492 80.4608 84.131 82.035 84.9062C84.1719 85.9591 85.0014 86.1726 87.2045 85.0554C89.4034 83.9403 88.4808 85.5715 91.3665 85.729C93.5365 85.8472 94.9121 84.7528 95.7995 83.7786C99.885 86.527 99.3162 92.0964 94.5563 94.2022C93.4599 94.6872 86.224 94.9443 78.7294 94.9629H78.4977H78.266C70.7715 94.9422 63.5355 94.6872 62.4392 94.2022C57.6793 92.0943 57.1104 86.527 61.1959 83.7786C62.0834 84.7549 63.459 85.8472 65.6289 85.729C68.5147 85.5715 67.5921 83.9403 69.791 85.0554C71.994 86.1726 72.8215 85.957 74.9604 84.9062C76.5346 84.131 76.425 85.4492 78.4957 85.7021H78.4998Z" fill="#FFE1CB"/>
<path d="M94.9266 88.5582H62.0751C60.8024 88.5582 59.7707 89.0742 59.7707 89.7106V90.0775C59.7707 90.714 60.8024 91.2299 62.0751 91.2299H94.9266C96.1993 91.2299 97.231 90.714 97.231 90.0775V89.7106C97.231 89.0742 96.1993 88.5582 94.9266 88.5582Z" fill="#BD6267"/>
<path fill-rule="evenodd" clip-rule="evenodd" d="M78.3571 71.6554H78.6446H89.4096V65.2653L85.2807 64.7409L85.4379 56.2283L80.9366 53.9152H76.0651L71.5638 56.2283L71.721 64.7409L67.59 65.2653V71.6554H78.3571Z" fill="#FAA9AF"/>
<path fill-rule="evenodd" clip-rule="evenodd" d="M73.3407 56.2283C74.6894 55.0427 76.4581 54.508 78.4998 54.4002C80.5436 54.508 82.3102 55.0427 83.6589 56.2283V51.6021H78.6239H78.3736H73.3386V56.2283H73.3407Z" fill="#724A48"/>
<path fill-rule="evenodd" clip-rule="evenodd" d="M86.2653 53.8302H83.4934V64.7533C83.4934 65.4663 84.0581 66.0529 84.7594 66.0881V66.0902H84.8256H86.2633H88.2346V69.5081C88.1291 69.9599 87.852 70.2439 87.3989 70.3455H78.6425H78.355H69.5986C69.1435 70.2418 68.8684 69.9599 68.7629 69.5081V66.0902H70.7343H72.1719H72.2381V66.0881C72.9415 66.0529 73.5041 65.4663 73.5041 64.7533V53.8302H70.7322V63.4434H69.7082C66.5929 63.4434 66.0137 65.3606 66.0137 66.0881V69.7029C66.0137 72.7374 68.0037 72.7291 68.7588 72.7291H78.3529H78.6405H88.2346C88.9897 72.7291 90.9797 72.7394 90.9797 69.7029V66.0881C90.9797 65.3606 90.4005 63.4434 87.2852 63.4434H86.2612V53.8302H86.2653Z" fill="#996460"/>
<path d="M73.5083 50.0599H70.7363V56.2283H73.5083V50.0599Z" fill="#724A48"/>
<path d="M86.2653 50.0599H83.4934V56.2283H86.2653V50.0599Z" fill="#724A48"/>
<path fill-rule="evenodd" clip-rule="evenodd" d="M31.0584 50.4537L39.3246 51.5398L49.5393 51.5502L68.6863 51.6476C70.4715 51.6061 72.1306 51.6952 73.9137 51.602H78.6218V9.26293C65.1263 8.99555 63.1218 -2.56182 53.7097 0.52443C49.0843 2.04165 47.6879 5.40357 46.3578 10.6475L43.6418 21.1955C42.9633 23.7863 43.3439 22.5489 41.085 23.1749C40.7416 24.2651 37.7524 34.7509 38.2303 35.9489L39.397 37.205L37.1939 45.5911C25.527 45.0647 13.8973 38.7139 5.67047 31.1962C0.709962 26.6632 -1.26555 32.015 0.825804 34.3032C8.29346 42.4779 19.9873 47.7654 31.0584 50.4537V50.4537Z" fill="#251919"/>
<path fill-rule="evenodd" clip-rule="evenodd" d="M78.6218 46.1715V12.1689C66.0137 11.9202 64.1416 1.12348 55.348 4.00453C51.0267 5.42018 49.7214 8.5624 48.4802 13.4623L45.942 23.3159C45.307 25.7368 45.6628 24.5802 43.5528 25.1668C43.2322 26.1845 40.4396 35.9821 40.8864 37.1014L41.9765 38.2766L39.9183 46.1114L78.6198 46.1736L78.6218 46.1715Z" fill="#95625E"/>
<path fill-rule="evenodd" clip-rule="evenodd" d="M78.6218 36.7594V22.7977H46.0765L45.942 23.318C45.307 25.7389 45.6628 24.5823 43.5528 25.1689C43.2529 26.1182 40.8078 34.695 40.8388 36.7594H78.6198H78.6218Z" fill="#403A2C"/>
<path fill-rule="evenodd" clip-rule="evenodd" d="M71.1376 34.0234H41.2484C41.3435 33.5737 41.4511 33.099 41.5649 32.6078H71.1356V34.0234H71.1376Z" fill="#A89378"/>
<path fill-rule="evenodd" clip-rule="evenodd" d="M71.1376 31.1942H41.9103C41.7904 31.6709 41.6745 32.1456 41.5669 32.6078H71.1376V31.1942Z" fill="#DABD9B"/>
<path fill-rule="evenodd" clip-rule="evenodd" d="M71.1376 31.1942H41.9103C42.0282 30.7195 42.1503 30.2428 42.2723 29.7785H71.1376V31.1942Z" fill="#A89378"/>
<path fill-rule="evenodd" clip-rule="evenodd" d="M71.1376 28.3629H42.6488C42.5268 28.8127 42.4006 29.2894 42.2723 29.7786H71.1376V28.3629Z" fill="#DABD9B"/>
<path fill-rule="evenodd" clip-rule="evenodd" d="M71.1376 28.3629H42.6488C42.7874 27.851 42.9198 27.3722 43.0377 26.9493H71.1356V28.3629H71.1376Z" fill="#A89378"/>
<path fill-rule="evenodd" clip-rule="evenodd" d="M71.1376 25.5336H43.4452C43.348 25.8611 43.2074 26.3523 43.0398 26.9493H71.1376V25.5336V25.5336Z" fill="#DABD9B"/>
<path d="M93.4727 25.5663L82.2698 14.3413C80.3176 12.3852 77.1523 12.3853 75.1999 14.3416L63.9961 25.5675C62.0437 27.5238 62.0436 30.6954 63.9958 32.6515L75.1986 43.8765C77.1509 45.8326 80.3162 45.8324 82.2686 43.8762L93.4724 32.6502C95.4248 30.694 95.4249 27.5224 93.4727 25.5663Z" fill="#403A2C"/>
<path d="M91.3188 26.0839L81.7531 16.4992C80.0861 14.829 77.3833 14.8291 75.7162 16.4995L66.1497 26.085C64.4826 27.7554 64.4825 30.4635 66.1494 32.1338L75.7152 41.7184C77.3821 43.3887 80.0849 43.3886 81.752 41.7182L91.3185 32.1327C92.9856 30.4623 92.9857 27.7542 91.3188 26.0839Z" fill="#FFCFA0"/>
<path d="M89.4799 26.5259L81.312 18.3418C79.8886 16.9156 77.5808 16.9157 76.1573 18.342L67.9887 26.5268C66.5653 27.9531 66.5652 30.2655 67.9885 31.6917L76.1564 39.8757C77.5798 41.3019 79.8876 41.3018 81.3111 39.8755L89.4797 31.6907C90.9032 30.2644 90.9033 27.952 89.4799 26.5259Z" fill="#E5541B"/>
<path fill-rule="evenodd" clip-rule="evenodd" d="M125.941 50.4538L117.675 51.5399L107.46 51.5502L88.3133 51.6476C86.528 51.6062 84.869 51.6953 83.0859 51.602H78.3777V9.26299C91.8733 8.99562 93.8778 -2.56176 103.29 0.524491C107.915 2.04171 109.312 5.40363 110.642 10.6476L113.358 21.1955C114.036 23.7864 113.656 22.549 115.915 23.175C116.258 24.2652 119.247 34.751 118.769 35.949L117.603 37.2051L119.806 45.5912C131.473 45.0647 143.102 38.714 151.329 31.1963C156.29 26.6633 158.265 32.015 156.174 34.3033C148.706 42.478 137.012 47.7655 125.941 50.4538V50.4538Z" fill="#251919"/>
<path fill-rule="evenodd" clip-rule="evenodd" d="M78.3798 46.1715V12.1689C90.9879 11.9202 92.86 1.12348 101.654 4.00453C105.975 5.42018 107.28 8.5624 108.521 13.4623L111.06 23.3159C111.695 25.7368 111.339 24.5802 113.449 25.1668C113.769 26.1845 116.562 35.9821 116.115 37.1014L115.025 38.2766L117.083 46.1114L78.3819 46.1736L78.3798 46.1715Z" fill="#95625E"/>
<path fill-rule="evenodd" clip-rule="evenodd" d="M78.3798 36.7594V22.7977H110.925L111.06 23.318C111.695 25.7389 111.339 24.5823 113.449 25.1689C113.749 26.1182 116.194 34.695 116.163 36.7594H78.3819H78.3798Z" fill="#403A2C"/>
<path fill-rule="evenodd" clip-rule="evenodd" d="M85.864 34.0235H115.753C115.658 33.5737 115.551 33.0991 115.437 32.6078H85.8661V34.0235H85.864Z" fill="#A89378"/>
<path fill-rule="evenodd" clip-rule="evenodd" d="M85.864 31.1943H115.091C115.211 31.671 115.327 32.1456 115.435 32.6079H85.864V31.1943Z" fill="#DABD9B"/>
<path fill-rule="evenodd" clip-rule="evenodd" d="M85.864 31.1942H115.091C114.973 30.7196 114.851 30.2428 114.729 29.7786H85.864V31.1942V31.1942Z" fill="#A89378"/>
<path fill-rule="evenodd" clip-rule="evenodd" d="M85.864 28.363H114.353C114.475 28.8128 114.601 29.2895 114.729 29.7786H85.864V28.363V28.363Z" fill="#DABD9B"/>
<path fill-rule="evenodd" clip-rule="evenodd" d="M85.864 28.363H114.353C114.214 27.851 114.082 27.3722 113.964 26.9494H85.8661V28.363H85.864Z" fill="#A89378"/>
<path fill-rule="evenodd" clip-rule="evenodd" d="M85.864 25.5337H113.556C113.654 25.8612 113.794 26.3524 113.962 26.9493H85.864V25.5337V25.5337Z" fill="#DABD9B"/>
<path d="M63.528 25.5663L74.7308 14.3413C76.683 12.3852 79.8484 12.3853 81.8008 14.3416L93.0045 25.5675C94.9569 27.5238 94.957 30.6954 93.0048 32.6515L81.802 43.8765C79.8498 45.8326 76.6844 45.8324 74.732 43.8762L63.5283 32.6502C61.5759 30.694 61.5757 27.5224 63.528 25.5663Z" fill="#403A2C"/>
<path d="M65.6818 26.0839L75.2476 16.4992C76.9145 14.829 79.6173 14.8291 81.2844 16.4995L90.8509 26.085C92.518 27.7554 92.5181 30.4635 90.8512 32.1338L81.2855 41.7184C79.6185 43.3887 76.9157 43.3886 75.2486 41.7182L65.6821 32.1327C64.015 30.4623 64.0149 27.7542 65.6818 26.0839Z" fill="#FFCFA0"/>
<path d="M67.5207 26.5259L75.6886 18.3418C77.112 16.9156 79.4198 16.9157 80.8433 18.342L89.0119 26.5268C90.4354 27.9531 90.4355 30.2655 89.0121 31.6917L80.8442 39.8757C79.4208 41.3019 77.113 41.3018 75.6895 39.8755L67.5209 31.6907C66.0974 30.2644 66.0974 27.952 67.5207 26.5259Z" fill="#E5541B"/>
</svg>
