<svg width="28" height="28" viewBox="0 0 28 28" fill="none" xmlns="http://www.w3.org/2000/svg">
<path d="M17.9787 7.81383C18.4078 7.15071 18.8759 6.68262 19.383 6.40957C19.9291 6.13652 20.6117 6 21.4309 6C22.7571 6 23.9468 6.25355 25 6.76064C24.805 9.14007 24.6099 11.5585 24.4149 14.016C24.2199 16.4734 24.0833 18.7163 24.0053 20.7447C23.4592 21.0567 22.7766 21.3298 21.9574 21.5638C21.1773 21.7979 20.3972 21.9149 19.617 21.9149C19.0319 21.9149 18.4468 21.8564 17.8617 21.7394C17.3156 21.6223 16.8085 21.4273 16.3404 21.1543C15.9113 20.8812 15.5603 20.5106 15.2872 20.0425C15.0532 19.5745 14.9362 18.9894 14.9362 18.2872C14.9362 17.5461 15.0142 16.6879 15.1702 15.7128C15.3262 14.7376 15.5408 13.7819 15.8138 12.8457C16.1259 11.8706 16.4574 10.9344 16.8085 10.0372C17.1596 9.14007 17.5496 8.39894 17.9787 7.81383ZM6.04255 7.81383C6.47163 7.15071 6.93972 6.68262 7.44681 6.40957C7.99291 6.13652 8.67553 6 9.49468 6C10.8209 6 12.0106 6.25355 13.0638 6.76064C12.8688 9.14007 12.6738 11.5585 12.4787 14.016C12.2837 16.4734 12.1472 18.7163 12.0691 20.7447C11.5231 21.0567 10.8404 21.3298 10.0213 21.5638C9.24113 21.7979 8.46099 21.9149 7.68085 21.9149C7.09574 21.9149 6.51064 21.8564 5.92553 21.7394C5.37943 21.6223 4.87234 21.4273 4.40426 21.1543C3.97518 20.8812 3.62411 20.5106 3.35106 20.0425C3.11702 19.5745 3 18.9894 3 18.2872C3 17.5461 3.07801 16.6879 3.23404 15.7128C3.39007 14.7376 3.60461 13.7819 3.87766 12.8457C4.18972 11.8706 4.52128 10.9344 4.87234 10.0372C5.2234 9.14007 5.61348 8.39894 6.04255 7.81383Z" fill="#161212"/>
</svg>
