<svg xmlns="http://www.w3.org/2000/svg" width="157" height="203" fill="none"><defs/><path fill="#A6A5AD" d="M118.134 117.334h-3.556v8.823h3.556v-8.823z"/><path fill="#615F65" fill-opacity=".2" d="M78.4998 202.397c26.8252 0 48.5712-2.564 48.5712-5.727 0-3.163-21.746-5.727-48.5712-5.727-26.8249 0-48.5708 2.564-48.5708 5.727 0 3.163 21.7459 5.727 48.5708 5.727z"/><path fill="#79787E" fill-rule="evenodd" d="M73.651 189.814c-1.6983 0-3.1091 1.239-3.378 2.864h-1.537v1.134h1.537c.2689 1.625 1.6797 2.865 3.378 2.865 1.8907 0 3.4235-1.536 3.4235-3.431 0-1.894-1.5328-3.43-3.4235-3.43v-.002z" clip-rule="evenodd"/><path fill="#DDDBE6" d="M73.651 195.479c1.2316 0 2.2299-1.001 2.2299-2.235s-.9983-2.234-2.2299-2.234c-1.2316 0-2.23 1-2.23 2.234s.9984 2.235 2.23 2.235z"/><path fill="#261818" fill-rule="evenodd" d="M44.2396 192.993c-.6309 4.544.6226 4.873 4.8178 5.132 3.5683.22 5.8975.108 8.7295-1.341l.3061.405c.9929 1.144.4841 1.042 4.5716 1.017 2.0293-.012 4.6627.195 6.3196-.302l.3062-3.887-.0042-1.403-.0082-1.252.0351-5.331c-.8295.589-1.3446.784-2.5857.402v6.444H47.3777c.0041-.083.0124-.161.0248-.236h-.029c.0166-.039.0331-.077.0497-.114.4654-2.17 4.1682-.887 6.1292-1.49 1.297-.398 2.5982-1.122 3.918-2.767.3806-.529 1.057-1.391 1.4025-2.119-1.6073.57-1.7894.237-3.1567.284-2.9705 2.815-2.1389 1.831-6.9298 2.173-2.8175.201-3.8766 1.853-4.5468 4.381v.004z" clip-rule="evenodd"/><path fill="#A5814F" d="M66.6922 193.895h-5.7507v1.625h5.7507v-1.625z"/><path fill="#A5814F" fill-rule="evenodd" d="M57.5428 193.895h-10.221l-.0062.999c-.0021.419.4758.587 1.3136.626h4.9936c1.9858-.164 3.1898-.763 3.922-1.625h-.002z" clip-rule="evenodd"/><path fill="#79787E" fill-rule="evenodd" d="M83.3507 189.814c1.6983 0 3.1091 1.239 3.378 2.864h1.537v1.134h-1.537c-.2689 1.625-1.6797 2.865-3.378 2.865-1.8907 0-3.4236-1.536-3.4236-3.431 0-1.894 1.5329-3.43 3.4236-3.43v-.002z" clip-rule="evenodd"/><path fill="#DDDBE6" d="M83.3507 195.479c1.2315 0 2.2299-1.001 2.2299-2.235s-.9984-2.234-2.2299-2.234c-1.2316 0-2.23 1-2.23 2.234s.9984 2.235 2.23 2.235z"/><path fill="#261818" fill-rule="evenodd" d="M112.76 192.993c.631 4.544-.623 4.873-4.818 5.132-3.568.22-5.897.108-8.7293-1.341l-.3061.405c-.993 1.144-.4841 1.042-4.5716 1.017-2.0293-.012-4.6627.195-6.3196-.302l-.3062-3.887.0041-1.403.0083-1.252-.0351-5.756c.8295.589 1.3446.784 2.5857.402v6.871h19.3498c-.004-.083-.012-.161-.025-.236-.01-.064-.008-.06-.021-.114-.465-2.17-4.168-.887-6.129-1.49-1.297-.398-2.598-1.122-3.9178-2.767-.3806-.529-1.057-1.391-1.4025-2.119 1.6073.57 1.7893.237 3.1563.284 2.971 2.815 2.139 1.831 6.93 2.173 2.818.201 3.877 1.853 4.547 4.381v.002z" clip-rule="evenodd"/><path fill="#A5814F" d="M96.0602 193.895h-5.7507v1.625h5.7507v-1.625z"/><path fill="#A5814F" fill-rule="evenodd" d="M100.007 193.895h10.221l.006.999c.002.419-.476.587-1.313.626h-4.994c-1.986-.164-3.19-.763-3.922-1.625h.002z" clip-rule="evenodd"/><path fill="#95635C" fill-rule="evenodd" d="M109.74 192.881H90.2722v-8.321h7.1057c2.0893 4.443 4.1251 5.851 6.1501 6.471 2.071.634 6.073-.817 6.212 1.85z" clip-rule="evenodd"/><path fill="#774A45" d="M63.6555 183.826h-1.4687v10.075h1.4687v-10.075zM94.6701 183.826h-1.4687v10.075h1.4687v-10.075z"/><path fill="#95635C" fill-rule="evenodd" d="M47.1584 192.881h19.569v-8.365h-7.1429c-2.0996 4.469-4.1476 5.882-6.181 6.506-2.081.639-6.1065-.821-6.2451 1.862v-.003z" clip-rule="evenodd"/><path fill="#774A45" d="M63.7838 183.778h-1.477v10.127h1.477v-10.127zM94.9618 183.778h-1.477v10.127h1.477v-10.127z"/><path fill="#FFE1CC" d="M49.9551 119.404h-4.3399v5.845h4.3399v-5.845zM111.126 120.32h-4.34v5.845h4.34v-5.845zM78.6446 112.204h-1.7232v43.584h1.7232v-43.584z"/><path fill="#FFE1CC" d="M80.0802 112.204h-1.7231v43.584h1.7231v-43.584z"/><path fill="#A6A5AD" d="M41.9558 117.367h-2.8236v7.124h2.8236v-7.124z"/><path fill="#CCE6FF" fill-rule="evenodd" d="M56.6657 184.199h10.9884l1.7852-14.72 9.2053-.892v-7.758H56.6657v23.37z" clip-rule="evenodd"/><path fill="#A9C5DD" d="M77.7344 162.719H76.427v6.757h1.3074v-6.757z"/><path fill="#A9C5DD" fill-rule="evenodd" d="M62.011 181.575h1.359v-9.611c0-1.368 1.1171-2.485 2.4803-2.485h12.7922v-1.362H64.4912c-1.3653 0-2.4802 1.119-2.4802 2.485v10.973z" clip-rule="evenodd"/><path fill="#FFE1CC" fill-rule="evenodd" d="M28.783 156.808h24.0827l.1799-22.335-9.1287-.174.3909 14.504-7.691 1.945-.1159-4.753-2.716-2.863-5.0019.672v13.004z" clip-rule="evenodd"/><path fill="#945C5B" fill-rule="evenodd" d="M35.326 150.658H47.8969c.724 0 1.3177-.592 1.3177-1.32 0-.725-.5916-1.32-1.3177-1.32h-9.9562v-1.19c0-2.813-2.2982-5.115-5.1053-5.115h-5.1157v2.091H31.5259c2.0893 0 3.8001 1.714 3.8001 3.808V150.658z" clip-rule="evenodd"/><path fill="#CCE6FF" d="M72.2112 114.438H55.4514v45.626h16.7598v-45.626z"/><path fill="#EBF5FF" fill-rule="evenodd" d="M76.9214 130.24l-4.7102-1.33-3.8289 1.023-1.6156 4.361-1.0012.398-1.084-4.452v-19.295h12.2399v19.295z" clip-rule="evenodd"/><path fill="#A9C3DC" fill-rule="evenodd" d="M78.6446 118.132c-6.9443-.058-13.1067 1.123-18.3775 3.72v-10.904h18.3775v7.186-.002z" clip-rule="evenodd"/><path fill="#A9C5DD" fill-rule="evenodd" d="M62.2675 147.199h9.4576v1.289h-7.9413V159.7h-1.5163v-11.212h-3.7504v-1.289h3.7504z" clip-rule="evenodd"/><path fill="#A6A5AD" fill-rule="evenodd" d="M32.0203 113.511H10.7406v-6.757H15.97l1.0447 2.776 3.9241-.728 2.5568-2.941 2.2486 3.248 4.9688.317 1.3073 4.085z" clip-rule="evenodd"/><path fill="#C39E83" fill-rule="evenodd" d="M51.4921 135.617c-.5875 22.165 2.7326 18.662-19.298 19.226l.0745 4.966c3.9179-.111 9.1804-.033 13.1087-.033 1.9176 0 4.0545.091 5.9431.006 2.2507-.101 2.9416-1.092 4.2634-2.016.24-2.585.2296-6.038.1552-8.832-.0911-3.48-2.0976-2.912-3.1733-5.211l2.0624-2.377-2.1906-2.407 2.3313-2.232-.5317-1.258-2.7471.168h.0021z" clip-rule="evenodd"/><path fill="#945C5B" fill-rule="evenodd" d="M59.9672 121.649c-.9454-3.571-3.4236-7.027-7.4367-7.027-4.011 0-9.7224 6.911-9.7224 10.242 0 3.33 2.1886 2.877 3.227 4.315-.1944-.74-.2999-1.519-.2999-2.326 0-4.7 3.558-8.512 7.9455-8.512 2.5568 0 4.8322 1.295 6.2865 3.306v.002zm-16.9895 27.154h2.6603V130.18h-2.6603v18.623z" clip-rule="evenodd"/><path fill="#A6A5AD" d="M31.6397 137.942h-11.398v28.498h11.398v-28.498z"/><path fill="#99625F" fill-rule="evenodd" d="M32.8767 161.857h18.6175c.0372 0 .0724 0 .1096-.002 2.8154-.043 5.0805-1.743 5.0805-3.836 0-.753-.2937-1.455-.8005-2.048-.3703 1.677-2.2135 2.989-4.5137 3.188H32.8788v2.698h-.0021z" clip-rule="evenodd"/><path fill="#A6A5AD" d="M37.3346 115.586H21.938v21.583h15.3966v-21.583z"/><path fill="#DDDBE6" d="M19.3377 115.586h-7.3083v21.583h7.3083v-21.583z"/><path fill="#A4A3A9" d="M14.431 122.376c1.2487 0 2.261-1.014 2.261-2.265 0-1.251-1.0123-2.265-2.261-2.265-1.2487 0-2.261 1.014-2.261 2.265 0 1.251 1.0123 2.265 2.261 2.265z"/><path fill="#666168" fill-rule="evenodd" d="M11.0633 139.605h4.1041v9.613c0 .721.5875 1.31 1.3074 1.31h2.8091v14.944h-2.1823c-.7116 0-1.295.584-1.295 1.297v4.82c0 .713.5834 1.297 1.295 1.297h18.0382c.7116 0 1.2949-.584 1.2949-1.297v-4.82c0-.713-.5833-1.297-1.2949-1.297h-2.261v-25.867h5.6473c.813 0 1.477-.666 1.477-1.48v-19.43h1.5907v4.873h2.6148v-6.183c0-.864-.7054-1.571-1.568-1.571h-2.6354v-1.277c0-.814-.6641-1.479-1.477-1.479h-4.1248c-.6765-2.759-2.4555-4.728-4.5468-4.728h-2.563c-.0993-2.114-1.839-3.797-3.9738-3.797-2.1348 0-3.8766 1.683-3.9738 3.797h-.0041v-.065h-1.8018c-.1303-2.083-1.8576-3.732-3.9696-3.732-2.1245 0-3.86212 1.67-3.97382 3.772h-.00621v6.966c-.07447-.004-.15101-.006-.22548-.006-2.67056 0-4.83639 2.17-4.83639 4.846s2.16583 4.846 4.83639 4.846h.22755v13.17c0 .814.66406 1.48 1.47696 1.48l-.0062-.002zm.9681-14.65h2.4017c2.6705 0 4.8364-2.17 4.8364-4.846 0-2.065-1.2888-3.826-3.1029-4.525h3.1732v21.583h-7.3084v-12.212zm2.4017-2.581v-.031h-.3724c-.1241-.02-.2461-.052-.362-.091.3186-.647.4986-1.374.4986-2.143 0-.769-.18-1.497-.4986-2.143.1076-.038.2172-.067.331-.087h.4034v-.036c1.2494 0 2.261 1.014 2.261 2.266s-1.0116 2.265-2.261 2.265zm-4.6999-.031h-.37028v.031H9.305l-.05792-.002-.05792-.004-.05792-.004c-.01862-.002-.03723-.004-.05585-.006l-.05585-.009c-.01862-.002-.03724-.006-.05586-.008-.01861-.004-.03723-.006-.05585-.01l-.05585-.013-.05378-.012c-.01862-.004-.03517-.01-.05379-.015l-.05378-.016-.05379-.017-.05171-.018-.05172-.021-.05171-.021-.04965-.023-.04964-.022-.04965-.025-.04758-.025-.04758-.027-.04757-.027-.04551-.029-.04551-.029-.04551-.031-.04344-.031-.04344-.033-.04138-.034-.04137-.035-.04137-.035-.0393-.037-.03931-.038-.03723-.039-.03724-.039-.03516-.042-.03517-.041-.0331-.042-.03309-.043-.03103-.044-.03103-.045-.02896-.046-.02896-.046c-.01035-.014-.01862-.031-.0269-.047l-.02689-.048-.02482-.048-.02482-.049-.02276-.05-.02275-.05-.02069-.052-.02068-.052-.01862-.051-.01655-.054-.01655-.054c-.00414-.019-.01034-.035-.01448-.054-.00414-.019-.00827-.035-.01241-.054l-.01241-.056-.01035-.056c-.00413-.019-.0062-.037-.00827-.056l-.00828-.056-.0062-.056-.00414-.058-.00414-.058-.00206-.058v-.058c0-1.252 1.01154-2.265 2.26098-2.265v.035h.40131c1.05706.191 1.85966 1.115 1.85966 2.23 0 1.126-.8171 2.058-1.89069 2.234l-.00621-.006zm12.2089 4.589H29.78v1.389h-7.8379v1.44H29.78v1.389h-7.8379v6.019h15.3966v-21.583h-2.9353v5.626c0 .893-.7302 1.625-1.6218 1.625h-6.1934c-1.0343 0-1.8824-.848-1.8824-1.887v-5.362H21.94v11.348l.0021-.004zm9.7431-11.348v3.688c0 .404-.3289.733-.7323.733h-2.7946c-.4034 0-.7323-.329-.7323-.733v-3.688h4.2592zm-.062-2.526h-9.6811v-.798l.0372-3.93c.0911-.659.6558-1.167 1.3405-1.167.6826 0 1.2474.508 1.3405 1.167l-.0228 1.227c-.0124.636.4882 1.165 1.1108 1.223-.0206.037-.0434.072-.0641.11h3.3015c1.1108 0 2.0872.866 2.6375 2.168zm-12.2834-2.272v2.272h-7.3084v-4.755h.0207c.1034-.744.7426-1.316 1.5122-1.316.7571 0 1.3859.551 1.508 1.276h-.0145v1.261c0 .692.5668 1.26 1.2577 1.26h3.0222l.0021.002zm-1.5556 28.819h1.5018v8.33h-1.5018v-8.33zm8.2351 0h4.3917v25.185h-8.4689v-14.262h4.0772v-10.923z" clip-rule="evenodd"/><path fill="#98959E" d="M9.35879 122.376c1.24871 0 2.26101-1.014 2.26101-2.265 0-1.251-1.0123-2.265-2.26101-2.265-1.24871 0-2.26099 1.014-2.26099 2.265 0 1.251 1.01228 2.265 2.26099 2.265z"/><path fill="#587692" fill-rule="evenodd" d="M76.9214 154.75h-1.0653v-22.87c-.753-1.35-1.8762-2.015-3.0657-2.154v25.024h-1.0653v-25.013c-2.0334.269-3.9945 1.919-4.3854 4.197-.1283 1.1-1.0054 1.295-1.4274 1.33-.4737.04-1.1604-.176-1.2328-1.264v-23.527h1.0653v18.944l.0062 4.225c.0682.561.6413.429.6144-.044-.151-2.508 1.7355-4.255 3.5662-4.929.5027-.186 1.1233-.311 1.7935-.344l1.0653.029c1.0799.112 2.1866.487 3.0657 1.248v-19.691h1.0653v44.843-.004z" clip-rule="evenodd"/><path fill="#627B94" d="M74.3233 135.063c.7003 0 1.268-.568 1.268-1.27 0-.702-.5677-1.271-1.268-1.271s-1.2681.569-1.2681 1.271.5678 1.27 1.2681 1.27zM74.3233 141.271c.7003 0 1.268-.569 1.268-1.27 0-.702-.5677-1.271-1.268-1.271s-1.2681.569-1.2681 1.271c0 .701.5678 1.27 1.2681 1.27zM74.3233 147.479c.7003 0 1.268-.569 1.268-1.271 0-.701-.5677-1.27-1.268-1.27s-1.2681.569-1.2681 1.27c0 .702.5678 1.271 1.2681 1.271zM74.3233 153.11c.7003 0 1.268-.568 1.268-1.27 0-.702-.5677-1.271-1.268-1.271s-1.2681.569-1.2681 1.271.5678 1.27 1.2681 1.27z"/><path fill="#A9C3DC" fill-rule="evenodd" d="M68.0802 135.412h-8.3654v7.072c0 1.065.8709 1.938 1.9342 1.938h4.4971c1.0633 0 1.9341-.873 1.9341-1.938v-7.072zm-7.058 1.258h5.699v5.71c0 .431-.3538.786-.784.786h-4.131c-.4303 0-.784-.355-.784-.786v-5.71z" clip-rule="evenodd"/><path fill="#A9C3DC" fill-rule="evenodd" d="M66.7212 139.524h-1.9735V140.289l-.0021.018v.005l-.002.008-.0021.01v.011l-.0021.01-.002.006v.004l-.0021.011-.0021.008-.002.01-.0021.011v.002l-.0021.008-.002.01-.0021.011-.0021.01-.002.01-.0021.011-.0021.008-.0021.008-.002.009-.0042.008-.0041.008-.0041.009-.0042.008-.0041.008-.0041.008-.0042.009-.0041.008-.0124.027v.002l-.0042.006-.0041.009c-.0145.029-.031.056-.0476.082l-.0062.009-.0165.023-.0062.008-.0124.014-.0063.009-.002.002-.0042.006-.0062.008-.0062.009-.0062.008c-.0413.048-.0869.091-.1365.13l-.0269.021c-.1448.102-.3206.164-.5109.164-.271 0-.5131-.122-.6765-.315l-.0062-.008-.0062-.009-.0062-.008-.0041-.006-.0021-.002-.0062-.009-.0124-.014-.0062-.008-.0062-.009-.0062-.008-.0021-.002-.0041-.004-.0062-.009-.0145-.024-.0042-.009-.0103-.016-.0041-.009-.0021-.002-.0021-.006-.0041-.008-.0021-.004-.0021-.004-.0041-.009-.0041-.006v-.002l-.0042-.008-.0041-.009-.0041-.008-.0042-.008v-.002l-.002-.006-.0042-.009-.0021-.004-.002-.004-.0042-.008-.002-.007v-.002l-.0042-.008-.002-.008-.0021-.008-.0021-.009v-.002l-.002-.008-.0021-.011-.0021-.004-.002-.006-.0021-.01-.0021-.006v-.005l-.0021-.01-.002-.008-.0021-.011-.0021-.01v-.002l-.002-.008-.0021-.011v-.004l-.0021-.006-.002-.01v-.011l-.0021-.01-.0021-.008v-.003l-.002-.02v-.763h-1.9487v1.25h.7613c-.0021.025-.0021.047-.0021.072 0 .865.9392 1.565 2.0976 1.565 1.1584 0 2.0975-.7 2.0975-1.565 0-.025 0-.047-.002-.072h.7467v-1.25l-.0082-.002z" clip-rule="evenodd"/><path fill="#666168" d="M17.7821 139.605h-2.6147v8.33h2.6147v-8.33z"/><path fill="#CCE6FF" fill-rule="evenodd" d="M100.336 184.199H89.3455l-1.7852-14.72-9.2032-.892v-7.758h21.9789v23.37z" clip-rule="evenodd"/><path fill="#A9C5DD" d="M80.5725 162.719h-1.3073v6.757h1.3073v-6.757z"/><path fill="#A9C5DD" fill-rule="evenodd" d="M94.9886 181.575h-1.359v-9.611c0-1.368-1.1171-2.485-2.4803-2.485H78.3571v-1.362h14.1513c1.3653 0 2.4802 1.119 2.4802 2.485v10.973z" clip-rule="evenodd"/><path fill="#FFE1CC" fill-rule="evenodd" d="M128.217 156.808h-24.083l-.18-22.335 9.131-.174-.391 14.504 7.689 1.945.118-4.753 2.716-2.863 5 .672v13.004z" clip-rule="evenodd"/><path fill="#945C5B" fill-rule="evenodd" d="M121.676 150.658h-12.571c-.724 0-1.318-.592-1.318-1.32 0-.725.592-1.32 1.318-1.32h9.956v-1.19c0-2.813 2.298-5.115 5.105-5.115h5.116v2.091h-3.806c-2.09 0-3.8 1.714-3.8 3.808V150.658z" clip-rule="evenodd"/><path fill="#CCE6FF" d="M101.548 114.438H84.7884v45.626h16.7596v-45.626z"/><path fill="#EBF5FF" fill-rule="evenodd" d="M80.0802 130.24l4.7082-1.33 3.8289 1.023 1.6177 4.361.9991.398 1.086-4.452v-19.295H80.0802v19.295z" clip-rule="evenodd"/><path fill="#A9C3DC" fill-rule="evenodd" d="M78.3571 118.132c6.9443-.058 13.1066 1.123 18.3774 3.72v-10.904H78.3571v7.186-.002z" clip-rule="evenodd"/><path fill="#A9C5DD" fill-rule="evenodd" d="M94.7342 147.199h-9.4597v1.289h7.9434V159.7h1.5163v-11.212h3.7483v-1.289h-3.7483z" clip-rule="evenodd"/><path fill="#A6A5AD" fill-rule="evenodd" d="M124.979 113.511h21.28v-6.757H141.03l-1.045 2.776-3.922-.728-2.557-2.941-2.249 3.248-4.97.317-1.308 4.085z" clip-rule="evenodd"/><path fill="#C39E83" fill-rule="evenodd" d="M105.507 135.959c.588 22.165-2.732 18.32 19.298 18.886l-.126 4.705c-3.918-.112-9.18-.033-13.108-.033-1.918 0-3.637.224-5.526.137-2.302.178-3.692 1.063-4.526-2.566-.24-2.585-.333-5.356-.26-8.152.091-3.48 2.097-2.912 3.173-5.211l-2.063-2.377 2.191-2.407-2.331-2.232.531-1.258 2.747.508z" clip-rule="evenodd"/><path fill="#945C5B" fill-rule="evenodd" d="M97.0345 121.649c.9453-3.571 3.4235-7.027 7.4365-7.027 4.011 0 9.723 6.911 9.723 10.242 0 3.33-2.189 2.877-3.227 4.315.194-.74.299-1.519.299-2.326 0-4.7-3.558-8.512-7.945-8.512-2.557 0-4.8323 1.295-6.2865 3.306v.002zm16.9895 27.154h-2.66V130.18h2.66v18.623z" clip-rule="evenodd"/><path fill="#A6A5AD" d="M136.76 137.942h-11.398v28.498h11.398v-28.498z"/><path fill="#99625F" fill-rule="evenodd" d="M124.123 161.857h-18.618c-.037 0-.072 0-.109-.002-2.816-.043-5.081-1.743-5.081-3.836 0-.753.294-1.455.801-2.048.37 1.677 2.213 2.989 4.514 3.188h18.491v2.698h.002z" clip-rule="evenodd"/><path fill="#A6A5AD" d="M135.062 115.586h-15.397v21.583h15.397v-21.583z"/><path fill="#DDDBE6" d="M144.972 115.586h-7.308v21.583h7.308v-21.583z"/><path fill="#A4A3A9" d="M142.569 122.376c1.248 0 2.261-1.014 2.261-2.265 0-1.251-1.013-2.265-2.261-2.265-1.249 0-2.261 1.014-2.261 2.265 0 1.251 1.012 2.265 2.261 2.265z"/><path fill="#666168" fill-rule="evenodd" d="M145.938 139.605h-4.104v9.613c0 .721-.587 1.31-1.307 1.31h-2.809v14.944h2.182c.712 0 1.295.584 1.295 1.297v4.82c0 .713-.583 1.297-1.295 1.297h-18.038c-.712 0-1.295-.584-1.295-1.297v-4.82c0-.713.583-1.297 1.295-1.297h2.261v-25.867h-5.647c-.813 0-1.477-.666-1.477-1.48v-19.43h-1.591v4.873h-2.615v-6.183c0-.864.706-1.571 1.568-1.571h2.636v-1.277c0-.814.664-1.479 1.476-1.479h4.125c.677-2.759 2.456-4.728 4.547-4.728h2.563c.099-2.114 1.839-3.797 3.974-3.797 2.135 0 3.876 1.683 3.974 3.797h.004v-.065h1.802c.13-2.083 1.857-3.732 3.969-3.732 2.125 0 3.862 1.67 3.974 3.772h.006V115.267h.226c2.67 0 4.836 2.17 4.836 4.846s-2.166 4.846-4.836 4.846H147.409v13.17c0 .814-.664 1.48-1.477 1.48l.006-.004zm-3.367-14.65h2.401v12.212h-7.308v-21.583h3.173c-1.814.699-3.103 2.46-3.103 4.525 0 2.676 2.166 4.846 4.837 4.846zm5.072-2.581v-.031h-.37c-1.072-.178-1.891-1.111-1.891-2.234 0-1.126.817-2.058 1.891-2.234h.372v-.032c1.249 0 2.261 1.014 2.261 2.266v.058l-.002.058-.004.058-.004.058-.007.056-.008.056c-.002.019-.006.037-.008.056l-.011.056-.012.056c-.004.018-.008.037-.012.054-.004.018-.011.035-.015.054l-.016.053-.017.054-.019.052-.02.052-.021.052-.023.05-.022.049-.025.05-.025.048-.027.047c-.008.017-.019.032-.027.048l-.029.046-.029.045-.031.046-.031.043-.033.044-.033.041-.035.042-.035.041-.038.04-.037.039-.039.037-.039.038-.042.035-.041.035-.042.033-.043.033-.043.032-.046.031-.045.029-.046.029-.048.027-.047.027-.048.024-.049.025-.05.023-.05.023-.051.021-.052.02-.052.019-.054.017-.053.016c-.019.004-.036.011-.054.015l-.054.012-.056.013c-.018.004-.037.008-.056.01-.018.004-.037.006-.055.008l-.056.009c-.019.002-.038.004-.056.006l-.058.004-.058.004-.058.002h-.058l-.008.006zm-4.7-.031h-.372v.031c-1.25 0-2.261-1.013-2.261-2.265 0-1.252 1.011-2.266 2.261-2.266v.032h.372c.124.02.244.051.36.091-.319.646-.499 1.374-.499 2.143 0 .769.18 1.496.499 2.143-.116.039-.238.071-.362.091h.002zm-7.879 4.589h-7.838v1.389h7.838v1.44h-7.838v1.389h7.838v6.019h-15.397v-21.583h2.935v5.626c0 .893.731 1.625 1.622 1.625h6.194c1.034 0 1.882-.848 1.882-1.887v-5.362h2.766v11.348l-.002-.004zm-9.743-11.348v3.688c0 .404.328.733.732.733h2.795c.403 0 .732-.329.732-.733v-3.688H125.321zm.062-2.526H135.064v-.798l-.038-3.93c-.091-.659-.655-1.167-1.34-1.167-.683 0-1.247.508-1.34 1.167l.022 1.227c.013.636-.488 1.165-1.111 1.223.021.037.044.072.065.11h-3.302c-1.111 0-2.087.866-2.637 2.168zm12.283-2.272v2.272h7.308v-4.755h-.02c-.104-.744-.743-1.316-1.512-1.316-.758 0-1.386.551-1.508 1.276h.014v1.261c0 .692-.567 1.26-1.258 1.26h-3.022l-.002.002zm1.556 28.819h-1.502v8.33h1.502v-8.33zm-8.236 0h-4.391v25.185h8.469v-14.262h-4.078v-10.923z" clip-rule="evenodd"/><path fill="#98959E" d="M147.641 122.376c1.249 0 2.261-1.014 2.261-2.265 0-1.251-1.012-2.265-2.261-2.265s-2.261 1.014-2.261 2.265c0 1.251 1.012 2.265 2.261 2.265z"/><path fill="#666168" d="M137.662 136.589h-2.6v22.632h2.6v-22.632z"/><path fill="#587692" fill-rule="evenodd" d="M80.0802 154.75h1.0653v-22.87c.753-1.35 1.8763-2.015 3.0657-2.154v25.024h1.0653v-25.013c2.0335.269 3.9945 1.919 4.3855 4.197.1282 1.1 1.0053 1.295 1.4273 1.33.4737.04 1.1605-.176 1.2329-1.264v-23.527h-1.0653v18.944l-.0062 4.225c-.0683.561-.6413.429-.6144-.044.151-2.508-1.7356-4.255-3.5663-4.929-.5026-.186-1.1232-.311-1.7935-.344l-1.0653.029c-1.0798.112-2.1865.487-3.0657 1.248v-19.691h-1.0653v44.843-.004z" clip-rule="evenodd"/><path fill="#A9C3DC" fill-rule="evenodd" d="M88.9193 135.412h8.3655v7.072c0 1.065-.8709 1.938-1.9342 1.938h-4.4971c-1.0633 0-1.9342-.873-1.9342-1.938v-7.072zm7.0581 1.258h-5.699v5.71c0 .431.3538.786.784.786h4.131c.4303 0 .784-.355.784-.786v-5.71z" clip-rule="evenodd"/><path fill="#A9C3DC" fill-rule="evenodd" d="M90.2784 139.524h1.9735V140.289l.002.018v.005l.0021.008.0021.01v.011l.002.01.0021.006v.004l.0021.011.002.008.0021.01.0021.011v.002l.0021.008.002.01.0021.011.0021.01.002.01.0021.011.0021.008.002.008.0021.009.0041.008.0042.008.0041.009.0042.008.0041.008.0041.008.0042.009.0041.008.0124.027v.002l.0042.006.0041.009c.0145.029.031.056.0476.082l.0062.009.0165.023.0062.008.0124.014.0062.009.0021.002.0042.006.0062.008.0062.009.0062.008c.0413.048.0869.091.1365.13l.0269.021c.1448.102.3206.164.5109.164.271 0 .513-.122.6765-.315l.0062-.008.0062-.009.0062-.008.0041-.006.0021-.002.0062-.009.0124-.014.0062-.008.0062-.009.0062-.008.0021-.002.0041-.004.0062-.009.0145-.024.0041-.009.0104-.016.0041-.009.0021-.002.0021-.006.0041-.008.0021-.004.002-.004.0042-.009.0041-.006v-.002l.0042-.008.0041-.009.0041-.008.0042-.008v-.002l.002-.006.0042-.009.002-.004.0021-.004.0041-.008.0021-.007v-.002l.0042-.008.002-.008.0021-.008.0021-.009v-.002l.002-.008.0021-.011.0021-.004.002-.006.0021-.01.0021-.006v-.005l.002-.01.0021-.008.0021-.011.002-.01v-.002l.0021-.008.0021-.011v-.004l.002-.006.0021-.01v-.011l.0021-.01.0021-.008v-.003l.002-.02v-.763H95.9691v1.25h-.7612c.0021.025.0021.047.0021.072 0 .865-.9392 1.565-2.0976 1.565-1.1584 0-2.0976-.7-2.0976-1.565 0-.025 0-.047.0021-.072h-.7468v-1.25l.0083-.002z" clip-rule="evenodd"/><path fill="#9A5F61" fill-rule="evenodd" d="M140.603 140.057h-5.661c-1.852 0-3.368 1.519-3.368 3.374v1.241c0 1.174.958 2.133 2.129 2.133h8.268c.558 0 1.015-.458 1.015-1.017v-3.346c0-1.312-1.071-2.387-2.383-2.387v.002z" clip-rule="evenodd"/><path fill="#FFE0C9" fill-rule="evenodd" d="M140.173 145.808h-5.099c-1.127 0-2.05-.924-2.05-2.054 0-1.129.923-2.054 2.05-2.054h5.099v4.108z" clip-rule="evenodd"/><path fill="#666168" d="M141.834 139.605h-2.614v8.33h2.614v-8.33z"/><path fill="#C0CCDA" d="M82.8852 131.801h-.4158c-.2604 0-.4716.212-.4716.473v3.036c0 .261.2112.473.4716.473h.4158c.2605 0 .4717-.212.4717-.473v-3.036c0-.261-.2112-.473-.4717-.473zM82.8852 138.009h-.4158c-.2604 0-.4716.211-.4716.472v3.037c0 .261.2112.472.4716.472h.4158c.2605 0 .4717-.211.4717-.472v-3.037c0-.261-.2112-.472-.4717-.472zM82.8852 144.216h-.4158c-.2604 0-.4716.212-.4716.473v3.037c0 .261.2112.472.4716.472h.4158c.2605 0 .4717-.211.4717-.472v-3.037c0-.261-.2112-.473-.4717-.473zM82.8852 149.848h-.4158c-.2604 0-.4716.212-.4716.473v3.036c0 .261.2112.473.4716.473h.4158c.2605 0 .4717-.212.4717-.473v-3.036c0-.261-.2112-.473-.4717-.473z"/><path fill="#9A5F61" fill-rule="evenodd" d="M16.3879 140.057h5.6618c1.8514 0 3.3677 1.519 3.3677 3.374v1.241c0 1.174-.9578 2.133-2.1286 2.133h-8.2682c-.5586 0-1.0157-.458-1.0157-1.017v-3.346c0-1.312 1.0715-2.387 2.383-2.387v.002z" clip-rule="evenodd"/><path fill="#FFE0C9" fill-rule="evenodd" d="M16.8182 145.808h5.0991c1.1274 0 2.05-.924 2.05-2.054 0-1.129-.9226-2.054-2.05-2.054h-5.0991v4.108z" clip-rule="evenodd"/><path fill="#DDDBE6" d="M19.8466 139.145h-2.5361v9.428h2.5361v-9.428z"/><path fill="#666168" d="M17.3105 139.145h-2.1369v10.085h2.1369v-10.085zM21.938 136.589h-2.6003v22.632h2.6003v-22.632z"/><path fill="#DDDBE6" d="M139.697 139.145h-2.536v9.428h2.536v-9.428z"/><path fill="#666168" d="M141.834 139.145h-2.137v10.085h2.137v-10.085zM137.67 136.589h-2.6v22.632h2.6v-22.632z"/><path fill="#9A5F61" fill-rule="evenodd" d="M20.219 164.423h5.3556c1.8121 0 3.2932-1.484 3.2932-3.3v-1.214c0-1.146-.9371-2.085-2.081-2.085h-7.9042c-.5461 0-.9929.447-.9929.995v3.27c0 1.285 1.0488 2.334 2.3293 2.334z" clip-rule="evenodd"/><path fill="#FFE0C9" fill-rule="evenodd" d="M21.2864 161.803h3.6593c.7757 0 1.4108-.636 1.4108-1.413s-.6351-1.414-1.4108-1.414h-3.6593v2.829-.002z" clip-rule="evenodd"/><path fill="#9A5F61" fill-rule="evenodd" d="M20.4631 150.528h4.7639c2.0025 0 3.6408 1.641 3.6408 3.648v1.343c0 1.268-1.0343 2.305-2.3003 2.305h-7.5814c-.6041 0-1.0985-.496-1.0985-1.101v-3.615c0-1.419 1.1585-2.58 2.5755-2.58z" clip-rule="evenodd"/><path fill="#FFE0C9" fill-rule="evenodd" d="M21.2864 156.304h3.6593c.7757 0 1.4108-.636 1.4108-1.413s-.6351-1.414-1.4108-1.414h-3.6593v2.83-.003z" clip-rule="evenodd"/><path fill="#9A5F61" fill-rule="evenodd" d="M136.783 164.423h-5.356c-1.812 0-3.293-1.484-3.293-3.3v-1.214c0-1.146.937-2.085 2.081-2.085h7.904c.546 0 .993.447.993.995v3.27c0 1.285-1.049 2.334-2.329 2.334z" clip-rule="evenodd"/><path fill="#FFE0C9" fill-rule="evenodd" d="M135.713 161.803h-3.659c-.776 0-1.411-.636-1.411-1.413s.635-1.414 1.411-1.414h3.659v2.829-.002z" clip-rule="evenodd"/><path fill="#9A5F61" fill-rule="evenodd" d="M136.783 151.222h-5.356c-1.812 0-3.293 1.484-3.293 3.3v1.215c0 1.146.937 2.085 2.081 2.085h7.904c.546 0 .993-.448.993-.995v-3.271c0-1.285-1.049-2.334-2.329-2.334z" clip-rule="evenodd"/><path fill="#FFE0C9" fill-rule="evenodd" d="M135.713 153.842h-3.659c-.776 0-1.411.636-1.411 1.414 0 .777.635 1.413 1.411 1.413h3.659v-2.829.002z" clip-rule="evenodd"/><path fill="#627B94" fill-rule="evenodd" d="M78.3571 167.483c3.5766.006 8.3737-.958 10.8208 1.996 1.8411 1.792.9433 9.128.9681 13.856l3.467-1.777 1.3756.017 3.4898 1.685.0082-18.578-.0413-2.81-11.7787.107c.9102-1.687 1.2681-2.412 1.0488-5.022l.6578 2.127 1.8225-.012 2.7078.02 1.3756.006 4.2034.032.0062-10.548-.0062-1.385c.0765-2.299 1.0322-1.969 2.0185-3.474l-2.1716-2.522 2.1656-2.367-2.178-2.529 2.913-2.753 1.532 1.897-.531 1.258 2.331 2.232-2.191 2.407 2.063 2.377c-1.076 2.299-3.082 1.731-3.173 5.211-.073 2.796.178 5.567.417 8.152l.336 3.855c-1.091-.381-.575 3.157-.575 5.484l-.156 20.014c-1.4704.79-1.6193.527-3.2287-.043-1.0488-.837-2.4865-1.358-3.8662-1.789-1.2102.363-.782.089-1.2784.825l-2.9912 1.25c-1.2639.394-1.779.199-2.6168-.394.06-3.897.2834-9.109.0207-12.894-.2875-4.17-4.9874-3.428-8.9695-3.339v-2.57l.0042-.002z" clip-rule="evenodd"/><path fill="#627B94" fill-rule="evenodd" d="M78.6446 167.483c-3.5766.006-8.3737-.958-10.8209 1.996-1.841 1.792-.9433 9.128-.9681 13.856l-3.467-1.777-1.3756.017-3.4897 1.685-.0083-18.578.0414-2.81 11.7786.107c-.9102-1.687-1.268-2.412-1.0488-5.022l-.6578 2.127-1.8224-.012-2.7078.02-1.3757.006-4.2033.032-.0063-10.548.0063-1.385c-.0766-2.299-1.0323-1.969-2.019-3.474l2.172-2.522-2.1658-2.367 2.1782-2.529-2.9126-2.753-1.5328 1.897.5316 1.258-2.3313 2.232 2.1907 2.407-2.0624 2.377c1.0756 2.299 3.0822 1.731 3.1732 5.211.0724 2.796-.1779 5.567-.4178 8.152l-.3352 3.855c1.0902-.381.5751 3.157.5751 5.484l.1552 20.014c1.4707.79 1.6197.527 3.229-.043 1.0488-.837 2.4865-1.358 3.8663-1.789 1.2101.363.7819.089 1.2784.825l2.9912 1.25c1.2639.394 1.779.199 2.6168-.394-.06-3.897-.2834-9.109-.0207-12.894.2875-4.17 4.9874-3.428 8.9694-3.339v-2.57l-.0041-.002z" clip-rule="evenodd"/><path fill="#A7611C" fill-rule="evenodd" d="M78.3571 163.277h5.3039c2.6519 0 4.8239-2.174 4.8239-4.834 0-2.657-2.1699-4.833-4.8239-4.833H73.3407c-2.6519 0-4.824 2.174-4.824 4.833 0 2.658 2.17 4.834 4.824 4.834h5.0164z" clip-rule="evenodd"/><path fill="#DB8A39" fill-rule="evenodd" d="M78.3571 161.88H83.5906c1.8866 0 3.4277-1.546 3.4277-3.434 0-1.891-1.5432-3.435-3.4277-3.435H73.411c-1.8865 0-3.4276 1.546-3.4276 3.435 0 1.89 1.5431 3.434 3.4276 3.434h4.9461z" clip-rule="evenodd"/><path stroke="#B06B28" stroke-linejoin="round" stroke-miterlimit="22.9256" stroke-width="2.49986" d="M78.4998 151.025l1.5515 4.811 5.0453-.01-4.0876 2.964 1.568 4.806-4.0772-2.98-4.0752 2.98 1.568-4.806-4.0875-2.964 5.0453.01 1.5494-4.811z" clip-rule="evenodd"/><path fill="#F2AB15" fill-rule="evenodd" d="M78.4998 151.025l1.5515 4.811 5.0453-.01-4.0876 2.964 1.568 4.806-4.0772-2.98-4.0752 2.98 1.568-4.806-4.0875-2.964 5.0453.01 1.5494-4.811z" clip-rule="evenodd"/><path fill="#D68A3C" fill-rule="evenodd" d="M82.577 163.596l-4.0772-2.98v-2.643l4.0772 5.623zM81.009 158.79l-2.5092-.817 6.5968-2.147-4.0876 2.964zM74.4246 163.596l4.0752-5.623-6.5947-2.147 4.0875 2.964-1.568 4.806zM78.4998 151.025l-1.5494 4.811h1.5494v-4.811z" clip-rule="evenodd"/><path fill="#724947" fill-rule="evenodd" d="M48.2547 123.574l-13.0673-.02c-3.3636-.004-6.1169 2.758-6.1169 6.129v.052c0 3.37 2.7761 6.029 6.1417 6.029h17.4094c3.8641 0 8.0489-6.674 7.6455-12.173v-9.966h4.4144v-2.682h-6.9132c-6.4748 1.352-8.9695 5.418-9.4267 10.606-.0579.655-.0848 1.331-.0869 2.023v.002z" clip-rule="evenodd"/><path fill="#BFA29E" fill-rule="evenodd" d="M57.4766 126.174l-22.101-.021c-1.9341-.002-3.5166 1.586-3.5166 3.523v.032c0 1.938 1.597 3.465 3.529 3.465h15.9676c2.2217 0 6.0775-4.114 6.1189-6.997l.0021-.002z" clip-rule="evenodd"/><path fill="#D38A3B" d="M35.5473 132.698c1.6749 0 3.0326-1.36 3.0326-3.038 0-1.678-1.3577-3.039-3.0326-3.039-1.6748 0-3.0326 1.361-3.0326 3.039 0 1.678 1.3578 3.038 3.0326 3.038z"/><path fill="#FFD09A" d="M35.5473 131.049c.7655 0 1.386-.622 1.386-1.389s-.6205-1.389-1.386-1.389c-.7654 0-1.386.622-1.386 1.389s.6206 1.389 1.386 1.389z"/><path fill="#937976" fill-rule="evenodd" d="M51.1446 123.508l6.4292.021-.031-9.675c-5.0123.831-6.3775 4.329-6.3982 9.652v.002z" clip-rule="evenodd"/><path fill="#724947" fill-rule="evenodd" d="M108.745 123.574l13.067-.02c3.364-.004 6.117 2.758 6.117 6.129v.052c0 3.37-2.776 6.029-6.142 6.029h-17.409c-3.864 0-8.0489-6.674-7.6455-12.173v-9.966h-4.4144v-2.682h6.9132c6.4747 1.352 8.9697 5.418 9.4267 10.606.058.655.085 1.331.087 2.023v.002z" clip-rule="evenodd"/><path fill="#BFA29E" fill-rule="evenodd" d="M99.5251 126.174l22.1009-.021c1.934-.002 3.517 1.586 3.517 3.523v.032c0 1.938-1.597 3.465-3.529 3.465h-15.968c-2.222 0-6.0775-4.114-6.1189-6.997l-.002-.002z" clip-rule="evenodd"/><path fill="#D38A3B" d="M121.452 132.698c1.675 0 3.033-1.36 3.033-3.038 0-1.678-1.358-3.039-3.033-3.039-1.675 0-3.032 1.361-3.032 3.039 0 1.678 1.357 3.038 3.032 3.038z"/><path fill="#FFD09A" d="M121.452 131.049c.766 0 1.386-.622 1.386-1.389s-.62-1.389-1.386-1.389c-.765 0-1.386.622-1.386 1.389s.621 1.389 1.386 1.389z"/><path fill="#937976" fill-rule="evenodd" d="M105.855 123.508l-6.4292.021.031-9.675c5.0122.831 6.3772 4.329 6.3982 9.652v.002z" clip-rule="evenodd"/><path fill="#FCB393" fill-rule="evenodd" d="M117.809 83.789h3.399l3.399-4.819v-6.5995l2.824-1.6768-2.559-3.8718 6.568-2.0997.359-2.8064-7.887-2.1701.695-10.7408h-6.798V83.789zM39.308 83.789h-3.3987l-3.3987-4.819v-6.5995l-2.8236-1.6768 2.5588-3.8718-6.5678-2.0997-.3599-2.8064 7.8876-2.1701-.6951-10.7408h6.7974V83.789z" clip-rule="evenodd"/><path fill="#FFE1CC" fill-rule="evenodd" d="M84.4967 77.3222h34.8183V54.2115H84.4967v9.7956l4.4951 1.938.0041 4.7879-4.4992.9224v5.6668zM72.505 77.3222H37.6842V54.2115H72.505v10.5294l-4.915.5244v4.8708l4.915 1.2042v5.9819z" clip-rule="evenodd"/><path fill="#FDB493" fill-rule="evenodd" d="M33.7621 54.2219c1.1315-.6508 2.0376-1.2892 3.4794-1.853l-.0662-1.2249-2.0541-.2135-1.4398-.0933.0807 3.3868v-.0021z" clip-rule="evenodd"/><path fill="#B99E93" d="M59.5576 50.0599H39.4694v6.1684h20.0882v-6.1684z"/><path fill="#8C6761" d="M72.1223 50.0599H59.5597v6.1684h12.5626v-6.1684z"/><path fill="#744C4A" d="M59.5597 56.2283c5.4952 0 9.9499-2.6587 9.9499-5.9383 0-3.2797-4.4547-5.9383-9.9499-5.9383-5.4953 0-9.95 2.6586-9.95 5.9383 0 3.2796 4.4547 5.9383 9.95 5.9383z"/><path fill="#95625F" d="M39.4714 50.0599h-2.7719v6.1684h2.7719v-6.1684z"/><path fill="#BCB2B1" d="M59.5597 54.4395c3.8386 0 6.9505-1.8578 6.9505-4.1495 0-2.2917-3.1119-4.1496-6.9505-4.1496-3.8387 0-6.9506 1.8579-6.9506 4.1496 0 2.2917 3.1119 4.1495 6.9506 4.1495z"/><path fill="#201E1E" d="M59.5597 53.4053c1.9993 0 3.62-.915 3.62-2.0437 0-1.1287-1.6207-2.0437-3.62-2.0437s-3.6201.915-3.6201 2.0437c0 1.1287 1.6208 2.0437 3.6201 2.0437z"/><path fill="#F29B76" fill-rule="evenodd" d="M67.1763 108.715l.2834-1.129 2.383-.104c.5916 1.018.6082 1.988 1.6818 2.475 1.4397.653 2.0975-.276 2.6209-1.262l.271-1.105 2.3975-.087c.5875 1.046.542 1.963 1.6693 2.462.0849.037.1676.071.2483.097V97.6304c-7.6601.0208-16.8198 1.3266-20.9239-3.3121-5.2067-5.8844 14.9704-2.4956 20.9239-4.3879l-.0869-17.4605-11.3608-.3606c-6.1872-.1265-9.8341 1.4799-12.8232 5.2149-2.5589 3.1982-1.6404 5.4844-1.6653 11.2485-.0082 1.8634.1241 2.224-1.3197 2.7733-2.5982-.8083-1.2764-4.05-1.4956-9.8018-.089-2.3546-1.8246-5.9797-2.5796-8.239-1.9838-5.9424-3.4028-12.9523-7.8607-13.8435-.06 13.1326-1.2246 20.7125 4.1 31.6086 3.2477 6.643 10.5499 14.6317 19.4242 16.1007.2441 1.333.2896 2.344 1.4521 2.827 1.4253.593 2.1452-.282 2.6603-1.279v-.004z" clip-rule="evenodd"/><path fill="#FDB493" fill-rule="evenodd" d="M123.237 54.2219c-1.131-.6508-2.037-1.2892-3.479-1.853l.066-1.2249 2.054-.2135 1.44-.0933-.081 3.3868v-.0021z" clip-rule="evenodd"/><path fill="#B99E93" d="M117.53 50.0599H97.442v6.1684h20.088v-6.1684z"/><path fill="#8C6761" d="M97.4399 50.0599H84.0002v6.1684h13.4397v-6.1684z"/><path fill="#744C4A" d="M97.442 56.2283c5.495 0 9.95-2.6587 9.95-5.9383 0-3.2797-4.455-5.9383-9.95-5.9383-5.4952 0-9.95 2.6586-9.95 5.9383 0 3.2796 4.4548 5.9383 9.95 5.9383z"/><path fill="#95625F" d="M120.302 50.0599h-2.772v6.1684h2.772v-6.1684z"/><path fill="#BCB2B1" d="M97.442 54.4395c3.839 0 6.951-1.8578 6.951-4.1495 0-2.2917-3.112-4.1496-6.951-4.1496-3.8387 0-6.9505 1.8579-6.9505 4.1496 0 2.2917 3.1118 4.1495 6.9505 4.1495z"/><path fill="#201E1E" d="M97.442 53.4053c1.9993 0 3.62-.915 3.62-2.0437 0-1.1287-1.6207-2.0437-3.62-2.0437s-3.6201.915-3.6201 2.0437c0 1.1287 1.6208 2.0437 3.6201 2.0437z"/><path fill="#F29B76" fill-rule="evenodd" d="M89.8254 108.715l-.2834-1.129-2.383-.104c-.5917 1.018-.6082 1.988-1.6818 2.475-1.4398.653-2.0976-.276-2.6209-1.262l-.271-1.105-2.3975-.087c-.5875 1.046-.542 1.963-1.6694 2.462-.0848.037-.1675.071-.2482.097V97.6304c7.66.0208 16.8198 1.3266 20.9239-3.3121 5.2069-5.8844-14.9705-2.4956-20.9239-4.3879l.0869-17.4605 11.3607-.3606c6.1872-.1265 9.8342 1.4799 12.8232 5.2149 2.559 3.1982 1.641 5.4844 1.665 11.2485.009 1.8634-.124 2.224 1.32 2.7733 2.598-.8083 1.276-4.05 1.496-9.8018.089-2.3546 1.824-5.9797 2.579-8.239 1.984-5.9424 3.403-12.9523 7.861-13.8435.06 13.1326 1.225 20.7125-4.1 31.6086-3.248 6.643-10.55 14.6317-19.4242 16.1007-.2441 1.333-.2896 2.344-1.4522 2.827-1.4252.593-2.1451-.282-2.6602-1.279v-.004z" clip-rule="evenodd"/><path fill="#D46B3B" fill-rule="evenodd" d="M30.3799 58.0834c.3869-.4975.5937-1.1566.631-1.9691l.1985-5.675 2.7554.3979.0311 2.8376c.0331 2.2012-.8751 5.789-1.0633 8.2224-.0579.7544-2.4348-.997-2.4389-.0104-2.5547 1.2581-4.1103.0767-4.1434 1.5131-.0331 1.4343 1.8328.4725 4.4889.7275 1.3714 2.7857 1.3342 2.9038 3.4421 4.9475-.693.4539-2.0272 1.3203-2.8547 1.9546l3.9118.0767c.0227 1.9752-.1738 2.4395 1.388 3.1857l-.0558-3.9195.0186-3.1505.0744-10.9915 2.9023-.056.6164.5265c4.5613.9037 5.6763 3.9837 7.1822 8.1892 1.3488 3.7682 2.6561 7.5488 4.0379 11.346 5.5646-5.0988 6.7189-6.5974 14.5154-6.5332.8854 1.4344 1.6839 1.9753 3.4339 2.8065l-1.8038.0891c-6.1872-.1264-10.1734.9866-13.1625 4.7216-2.5589 3.1982-1.6404 5.4844-1.6653 11.2486-.0082 1.8633.1242 2.224-1.3197 2.7732-2.5982-.8083-1.2764-4.05-1.4956-9.8018-.089-2.3546-1.8245-5.9797-2.5796-8.239-1.9838-5.9424-3.4028-12.9523-7.8607-13.8435-.06 13.1326-1.2246 20.7125 4.1 31.6087 3.2477 6.643 10.5499 14.6307 19.4242 16.1007.2441 1.333.2896 2.344 1.4522 2.827 1.4252.593 2.1451-.282 2.6602-1.279l.2834-1.129 2.383-.104c.5916 1.018.6082 1.988 1.6818 2.475 1.4397.653 2.0975-.276 2.6209-1.262l.271-1.105 2.3975-.087c.5854 1.044.542 1.958 1.6611 2.458 1.1191-.5 1.0757-1.416 1.6611-2.458l2.3975.087.271 1.105c.5233.986 1.1832 1.917 2.6209 1.262 1.0736-.487 1.0881-1.457 1.6818-2.475l2.383.104.2834 1.129c.5151.997 1.235 1.872 2.6602 1.279 1.1605-.483 1.206-1.492 1.4522-2.827 8.8741-1.47 16.1781-9.4577 19.4241-16.1007 5.325-10.8942 4.162-18.4761 4.1-31.6087-4.458.8912-5.877 7.9011-7.861 13.8435-.755 2.2593-2.49 5.8865-2.579 8.239-.219 5.7518 1.102 8.9914-1.496 9.8018-1.444-.5492-1.311-.9078-1.32-2.7732-.024-5.7642.892-8.0525-1.665-11.2486-2.9889-3.735-6.9751-4.8501-13.1623-4.7216l-1.8038-.0891c1.75-.8312 2.2796-1.3721 3.1649-2.8065 7.7966-.0663 9.2198 1.4344 14.7822 6.5332 1.382-3.7972 2.689-7.5778 4.038-11.346 1.506-4.2055 2.621-7.2855 7.182-8.1892l.617-.5265 2.902.056.074 10.9915.019 3.1505-.056 3.9195c1.564-.7462 1.365-1.2105 1.388-3.1857l3.912-.0767c-.828-.6363-2.162-1.5007-2.855-1.9546 2.106-2.0416 2.071-2.1597 3.442-4.9475 2.656-.255 4.524.7068 4.489-.7275-.033-1.4343-1.588-.2529-4.143-1.5131-.002-.9866-2.379.7627-2.439.0104-.188-2.4334-1.099-6.0192-1.063-8.2224l.031-2.8376 2.755-.3979.199 5.675c.037.8125.244 1.4716.631 1.9691 2.602 2.995 6.538.8374 6.855 4.9993.399 5.2253-6.109 3.2355-7.627 4.16.432 1.4011.434.5492 1.657 1.455 3.539 2.6219-1.638 5.5237-1.645 5.5299-.217 5.9425-1.081 9.0287-5.614 10.8299-2.728 1.084-1.059-.0725-3.33 5.0408-3.26 7.3415-8.798 14.2457-15.875 17.6327-2.1014 1.005-4.139 1.119-5.136 3.138-1.1543 1.569-1.5618 2.058-5.0536 1.94-1.7108-.257-1.5908-.815-2.4679-.947-.8067-.123-1.117.491-2.2258.864-3.2043 1.08-3.7835-2.037-6.3423-.164-1.1047.558-1.808.485-2.6313 0-2.5589-1.873-3.1381 1.244-6.3423.164-1.1067-.373-1.4191-.989-2.2259-.864-.8791.134-.7571.69-2.4678.947-3.4939.118-4.0834-.319-5.0536-1.94-.9061-2.11-3.0367-2.135-5.1364-3.138-7.0766-3.385-12.6122-10.2912-15.8744-17.6327-2.2693-5.1113-.5999-3.9547-3.3305-5.0408-4.5323-1.8012-5.3949-4.8874-5.6142-10.8299-.0062-.0062-5.1839-2.908-1.6445-5.5299 1.2226-.9058 1.2225-.0539 1.657-1.455-1.5184-.9245-8.0262 1.0674-7.627-4.16.3186-4.1599 4.2531-2.0022 6.8554-4.9993h.002zm92.5061 18.0117c-.745.6944-1.419.9597-2.673 1.2105l-.6 4.8812c1.85-.9244 3.728-3.0303 3.273-6.0917zm-88.7722 0c.7447.6944 1.419.9597 2.6726 1.2105l.5999 4.8812c-1.8493-.9244-3.7276-3.0303-3.2725-6.0917z" clip-rule="evenodd"/><path fill="#8E5A5C" fill-rule="evenodd" d="M36.7264 52.1472c-3.7317 1.2622-6.4313 4.933-6.4313 9.2629 0 4.3298 2.6996 8.0006 6.4313 9.2628V52.1472z" clip-rule="evenodd"/><path fill="#FEE2CC" fill-rule="evenodd" d="M36.7264 55.2085c-2.1968 1.113-3.7131 3.4718-3.7131 6.2015 0 2.7298 1.5163 5.0885 3.7131 6.2015V55.2064v.0021z" clip-rule="evenodd"/><path fill="#8E5A5C" fill-rule="evenodd" d="M120.273 52.1472c3.732 1.2622 6.431 4.933 6.431 9.2629 0 4.3298-2.699 8.0006-6.431 9.2628V52.1472z" clip-rule="evenodd"/><path fill="#FEE2CC" fill-rule="evenodd" d="M120.273 55.2085c2.197 1.113 3.713 3.4718 3.713 6.2015 0 2.7298-1.516 5.0885-3.713 6.2015V55.2064v.0021z" clip-rule="evenodd"/><path fill="#D46B3B" fill-rule="evenodd" d="M79.7906 80.1182v-2.4893c0-.8311.6785-1.5089 1.506-1.5089.8295 0 1.5059.6798 1.5059 1.5089v4.5786c.3744.7234 1.1315 1.2208 1.9962 1.2208.9081 0 1.6942-.5472 2.0479-1.3265V77.631c0-.8312.6785-1.5089 1.506-1.5089.8295 0 1.5059.6798 1.5059 1.5089v4.4708c.3537.7814 1.1398 1.3265 2.0479 1.3265 1.237 0 2.2486-1.0135 2.2486-2.253v-1.6229c5.927 1.9172 10.225 8.896 5.0329 14.7638-4.0627 4.5911-13.0798 3.3578-20.6922 3.3122-7.6125.0435-16.6295 1.2789-20.6923-3.3122-5.1922-5.8678-.8936-12.8466 5.0329-14.7638v1.6229c0 1.2395 1.0116 2.253 2.2486 2.253.9081 0 1.6942-.5472 2.0479-1.3265V77.631c0-.8312.6785-1.5089 1.506-1.5089.8295 0 1.5059.6798 1.5059 1.5089v4.4708c.3537.7814 1.1398 1.3265 2.0479 1.3265.8647 0 1.6218-.4974 1.9962-1.2208v-4.5786c0-.8311.6785-1.5089 1.506-1.5089.8295 0 1.5059.6798 1.5059 1.5089v4.0853c0 .798.5523 1.4716 1.2908 1.6602.7406-.1886 1.2908-.8643 1.2908-1.6602v-1.596h.0083z" clip-rule="evenodd"/><path fill="#FFE1CB" fill-rule="evenodd" d="M78.4998 85.7021c2.0707-.2529 1.961-1.5711 3.5352-.7959 2.1369 1.0529 2.9664 1.2664 5.1695.1492 2.1989-1.1151 1.2763.5161 4.162.6736 2.17.1182 3.5456-.9762 4.433-1.9504 4.0855 2.7484 3.5167 8.3178-1.2432 10.4236-1.0964.485-8.3323.7421-15.8269.7607h-.4634c-7.4945-.0207-14.7305-.2757-15.8268-.7607-4.7599-2.1079-5.3288-7.6752-1.2433-10.4236.8875.9763 2.2631 2.0686 4.433 1.9504 2.8858-.1575 1.9632-1.7887 4.1621-.6736 2.203 1.1172 3.0305.9016 5.1694-.1492 1.5742-.7752 1.4646.543 3.5353.7959h.0041z" clip-rule="evenodd"/><path fill="#BD6267" d="M94.9266 88.5582H62.0751c-1.2727 0-2.3044.516-2.3044 1.1524v.3669c0 .6365 1.0317 1.1524 2.3044 1.1524h32.8515c1.2727 0 2.3044-.5159 2.3044-1.1524v-.3669c0-.6364-1.0317-1.1524-2.3044-1.1524z"/><path fill="#FAA9AF" fill-rule="evenodd" d="M78.3571 71.6554h11.0525v-6.3901l-4.1289-.5244.1572-8.5126-4.5013-2.3131h-4.8715l-4.5013 2.3131.1572 8.5126-4.131.5244v6.3901h10.7671z" clip-rule="evenodd"/><path fill="#724A48" fill-rule="evenodd" d="M73.3407 56.2283c1.3487-1.1856 3.1174-1.7203 5.1591-1.8281 2.0438.1078 3.8104.6425 5.1591 1.8281v-4.6262H73.3386v4.6262h.0021z" clip-rule="evenodd"/><path fill="#996460" fill-rule="evenodd" d="M86.2653 53.8302h-2.7719v10.9231c0 .713.5647 1.2996 1.266 1.3348v.0021h3.4752v3.4179c-.1055.4518-.3826.7358-.8357.8374H69.5986c-.4551-.1037-.7302-.3856-.8357-.8374v-3.4179H72.2381v-.0021c.7034-.0352 1.266-.6218 1.266-1.3348V53.8302h-2.7719v9.6132h-1.024c-3.1153 0-3.6945 1.9172-3.6945 2.6447v3.6148c0 3.0345 1.99 3.0262 2.7451 3.0262h19.4758c.7551 0 2.7451.0103 2.7451-3.0262v-3.6148c0-.7275-.5792-2.6447-3.6945-2.6447h-1.024v-9.6132h.0041z" clip-rule="evenodd"/><path fill="#724A48" d="M73.5083 50.0599h-2.772v6.1684h2.772v-6.1684zM86.2653 50.0599h-2.7719v6.1684h2.7719v-6.1684z"/><path fill="#251919" fill-rule="evenodd" d="M31.0584 50.4537l8.2662 1.0861 10.2147.0104 19.147.0974c1.7852-.0415 3.4443.0476 5.2274-.0456h4.7081V9.26293c-13.4955-.26738-15.5-11.82475-24.9121-8.7385-4.6254 1.51722-6.0218 4.87914-7.3519 10.12307l-2.716 10.548c-.6785 2.5908-.2979 1.3534-2.5568 1.9794-.3434 1.0902-3.3326 11.576-2.8547 12.774l1.1667 1.2561-2.2031 8.3861c-11.6669-.5264-23.2966-6.8772-31.52343-14.3949-4.960508-4.533-6.93602.8188-4.844666 3.107C8.29346 42.4779 19.9873 47.7654 31.0584 50.4537z" clip-rule="evenodd"/><path fill="#95625E" fill-rule="evenodd" d="M78.6218 46.1715V12.1689C66.0137 11.9202 64.1416 1.12348 55.348 4.00453c-4.3213 1.41565-5.6266 4.55787-6.8678 9.45777l-2.5382 9.8536c-.635 2.4209-.2792 1.2643-2.3892 1.8509-.3206 1.0177-3.1132 10.8153-2.6664 11.9346l1.0901 1.1752-2.0582 7.8348 38.7015.0622.002-.0021z" clip-rule="evenodd"/><path fill="#403A2C" fill-rule="evenodd" d="M78.6218 36.7594V22.7977H46.0765l-.1345.5203c-.635 2.4209-.2792 1.2643-2.3892 1.8509-.2999.9493-2.745 9.5261-2.714 11.5905h37.783z" clip-rule="evenodd"/><path fill="#A89378" fill-rule="evenodd" d="M71.1376 34.0234H41.2484c.0951-.4497.2027-.9244.3165-1.4156h29.5707v1.4156h.002z" clip-rule="evenodd"/><path fill="#DABD9B" fill-rule="evenodd" d="M71.1376 31.1942H41.9103c-.1199.4767-.2358.9514-.3434 1.4136h29.5707v-1.4136z" clip-rule="evenodd"/><path fill="#A89378" fill-rule="evenodd" d="M71.1376 31.1942H41.9103c.1179-.4747.24-.9514.362-1.4157h28.8653v1.4157z" clip-rule="evenodd"/><path fill="#DABD9B" fill-rule="evenodd" d="M71.1376 28.3629H42.6488c-.122.4498-.2482.9265-.3765 1.4157h28.8653v-1.4157z" clip-rule="evenodd"/><path fill="#A89378" fill-rule="evenodd" d="M71.1376 28.3629H42.6488c.1386-.5119.271-.9907.3889-1.4136h28.0979v1.4136h.002z" clip-rule="evenodd"/><path fill="#DABD9B" fill-rule="evenodd" d="M71.1376 25.5336H43.4452c-.0972.3275-.2378.8187-.4054 1.4157h28.0978v-1.4157z" clip-rule="evenodd"/><path fill="#403A2C" d="M93.4727 25.5663l-11.2029-11.225c-1.9522-1.9561-5.1175-1.956-7.0699.0003L63.9961 25.5675c-1.9524 1.9563-1.9525 5.1279-.0003 7.084l11.2028 11.225c1.9523 1.9561 5.1176 1.9559 7.07-.0003l11.2038-11.226c1.9524-1.9562 1.9525-5.1278.0003-7.0839z"/><path fill="#FFCFA0" d="M91.3188 26.0839l-9.5657-9.5847c-1.667-1.6702-4.3698-1.6701-6.0369.0003l-9.5665 9.5855c-1.6671 1.6704-1.6672 4.3785-.0003 6.0488l9.5658 9.5846c1.6669 1.6703 4.3697 1.6702 6.0368-.0002l9.5665-9.5855c1.6671-1.6704 1.6672-4.3785.0003-6.0488z"/><path fill="#E5541B" d="M89.4799 26.5259l-8.1679-8.1841c-1.4234-1.4262-3.7312-1.4261-5.1547.0002l-8.1686 8.1848c-1.4234 1.4263-1.4235 3.7387-.0002 5.1649l8.1679 8.184c1.4234 1.4262 3.7312 1.4261 5.1547-.0002l8.1686-8.1848c1.4235-1.4263 1.4236-3.7387.0002-5.1648z"/><path fill="#251919" fill-rule="evenodd" d="M125.941 50.4538l-8.266 1.0861-10.215.0103-19.1467.0974c-1.7853-.0414-3.4443.0477-5.2274-.0456h-4.7082V9.26299C91.8733 8.99562 93.8778-2.56176 103.29.524491c4.625 1.517219 6.022 4.879139 7.352 10.123109l2.716 10.5479c.678 2.5909.298 1.3535 2.557 1.9795.343 1.0902 3.332 11.576 2.854 12.774l-1.166 1.2561 2.203 8.3861c11.667-.5265 23.296-6.8772 31.523-14.3949 4.961-4.533 6.936.8187 4.845 3.107-7.468 8.1747-19.162 13.4622-30.233 16.1505z" clip-rule="evenodd"/><path fill="#95625E" fill-rule="evenodd" d="M78.3798 46.1715V12.1689C90.9879 11.9202 92.86 1.12348 101.654 4.00453c4.321 1.41565 5.626 4.55787 6.867 9.45777l2.539 9.8536c.635 2.4209.279 1.2643 2.389 1.8509.32 1.0177 3.113 10.8153 2.666 11.9346l-1.09 1.1752 2.058 7.8348-38.7011.0622-.0021-.0021z" clip-rule="evenodd"/><path fill="#403A2C" fill-rule="evenodd" d="M78.3798 36.7594V22.7977h32.5452l.135.5203c.635 2.4209.279 1.2643 2.389 1.8509.3.9493 2.745 9.5261 2.714 11.5905H78.3798z" clip-rule="evenodd"/><path fill="#A89378" fill-rule="evenodd" d="M85.864 34.0235h29.889c-.095-.4498-.202-.9244-.316-1.4157H85.8661v1.4157h-.0021z" clip-rule="evenodd"/><path fill="#DABD9B" fill-rule="evenodd" d="M85.864 31.1943h29.227c.12.4767.236.9513.344 1.4136H85.864v-1.4136z" clip-rule="evenodd"/><path fill="#A89378" fill-rule="evenodd" d="M85.864 31.1942h29.227c-.118-.4746-.24-.9514-.362-1.4156H85.864v1.4156z" clip-rule="evenodd"/><path fill="#DABD9B" fill-rule="evenodd" d="M85.864 28.363h28.489c.122.4498.248.9265.376 1.4156H85.864V28.363z" clip-rule="evenodd"/><path fill="#A89378" fill-rule="evenodd" d="M85.864 28.363h28.489c-.139-.512-.271-.9908-.389-1.4136H85.8661v1.4136h-.0021z" clip-rule="evenodd"/><path fill="#DABD9B" fill-rule="evenodd" d="M85.864 25.5337h27.692c.098.3275.238.8187.406 1.4156H85.864v-1.4156z" clip-rule="evenodd"/><path fill="#403A2C" d="M63.528 25.5663l11.2028-11.225c1.9522-1.9561 5.1176-1.956 7.07.0003l11.2037 11.2259c1.9524 1.9563 1.9525 5.1279.0003 7.084L81.802 43.8765c-1.9522 1.9561-5.1176 1.9559-7.07-.0003l-11.2037-11.226c-1.9524-1.9562-1.9526-5.1278-.0003-7.0839z"/><path fill="#FFCFA0" d="M65.6818 26.0839l9.5658-9.5847c1.6669-1.6702 4.3697-1.6701 6.0368.0003l9.5665 9.5855c1.6671 1.6704 1.6672 4.3785.0003 6.0488l-9.5657 9.5846c-1.667 1.6703-4.3698 1.6702-6.0369-.0002l-9.5665-9.5855c-1.6671-1.6704-1.6672-4.3785-.0003-6.0488z"/><path fill="#E5541B" d="M67.5207 26.5259l8.1679-8.1841c1.4234-1.4262 3.7312-1.4261 5.1547.0002l8.1686 8.1848c1.4235 1.4263 1.4236 3.7387.0002 5.1649l-8.1679 8.184c-1.4234 1.4262-3.7312 1.4261-5.1547-.0002l-8.1686-8.1848c-1.4235-1.4263-1.4235-3.7387-.0002-5.1648z"/></svg>
