<svg width="28" height="28" viewBox="0 0 28 28" fill="none" xmlns="http://www.w3.org/2000/svg">
<path d="M10.7041 13.9986L11.1651 13.6145L20.0518 6.20936C20.052 6.20915 20.0523 6.20894 20.0525 6.20874C20.3056 5.99585 20.4641 5.69144 20.4934 5.36203C20.5227 5.03229 20.4201 4.70438 20.2082 4.4501C19.9962 4.19582 19.6921 4.0359 19.3625 4.00534C19.0331 3.97482 18.7051 4.07595 18.4501 4.28661C18.4499 4.28677 18.4497 4.28694 18.4495 4.2871L7.94961 13.0371C7.9496 13.0371 7.94959 13.0371 7.94958 13.0371C7.80884 13.1547 7.69564 13.3017 7.61795 13.4679C7.54027 13.634 7.5 13.8152 7.5 13.9986C7.5 14.182 7.54027 14.3632 7.61795 14.5293C7.69561 14.6954 7.80876 14.8424 7.94942 14.9599C7.94948 14.96 7.94954 14.96 7.94961 14.9601L18.4505 23.7108C18.7055 23.9228 19.0342 24.025 19.3644 23.9948C19.6946 23.9646 19.9993 23.8046 20.2116 23.5499C20.4239 23.2952 20.5265 22.9666 20.4967 22.6364C20.4669 22.3063 20.3075 22.0016 20.0533 21.789L10.7041 13.9986ZM10.7041 13.9986L11.1651 14.3827L20.0528 21.7886L10.7041 13.9986Z" fill="#161212" stroke="#161212"/>
</svg>
